<?xml version="1.0" standalone="no"?>
<!DOCTYPE svg PUBLIC "-//W3C//DTD SVG 20010904//EN"
 "http://www.w3.org/TR/2001/REC-SVG-20010904/DTD/svg10.dtd">
<svg version="1.0" xmlns="http://www.w3.org/2000/svg"
 width="334.000000pt" height="500.000000pt" viewBox="0 0 334.000000 500.000000"
 preserveAspectRatio="xMidYMid meet">

<g transform="translate(0.000000,500.000000) scale(0.100000,-0.100000)"
fill="#000000" stroke="none">
<path d="M0 2715 l0 -2285 1670 0 1670 0 0 2285 0 2285 -1670 0 -1670 0 0
-2285z m655 2049 c27 -28 14 -52 -37 -68 -10 -3 -18 -14 -18 -25 0 -11 -4 -23
-10 -26 -6 -4 -10 20 -10 64 l0 71 29 0 c16 0 37 -7 46 -16z m223 5 c-21 -12
-24 -35 -5 -43 10 -5 10 -7 0 -12 -7 -3 -13 -19 -13 -35 0 -42 -17 -36 -22 9
-7 52 9 92 35 92 20 -1 20 -2 5 -11z m200 -1 c16 -16 15 -34 -4 -53 -15 -15
-15 -17 0 -34 9 -10 16 -24 16 -32 0 -8 -13 -1 -30 19 -36 39 -40 39 -40 7 0
-14 -4 -25 -10 -25 -6 0 -10 28 -10 65 l0 65 33 0 c18 0 38 -5 45 -12z m167
-2 c-17 -12 -18 -16 -5 -32 12 -13 12 -18 3 -21 -7 -3 -13 -21 -13 -41 0 -54
-19 -26 -21 30 -2 49 12 78 39 78 13 0 12 -3 -3 -14z m239 -49 c-1 -83 -18
-85 -22 -2 -1 47 1 65 10 65 9 0 13 -19 12 -63z m127 10 l16 -41 25 49 25 49
12 -52 c14 -65 14 -95 1 -87 -5 3 -10 19 -10 35 0 45 -15 44 -34 -3 l-17 -42
-16 38 c-18 45 -33 48 -33 7 0 -21 -5 -30 -16 -30 -10 0 -14 6 -11 14 3 8 9
32 12 53 13 78 19 79 46 10z m497 -14 l-3 -68 -35 0 c-28 0 -36 5 -44 27 -12
33 6 58 40 58 19 0 24 5 24 25 0 14 5 25 10 25 7 0 10 -25 8 -67z m310 55 c7
-7 12 -22 12 -35 0 -18 -7 -25 -29 -29 -23 -5 -31 -12 -33 -33 -5 -46 -23 -18
-24 39 0 30 1 58 3 63 6 11 58 8 71 -5z m52 -14 c0 -18 5 -24 18 -22 29 4 42
-11 42 -53 0 -24 -4 -38 -10 -34 -5 3 -10 19 -10 36 0 22 -5 29 -20 29 -16 0
-20 -7 -20 -30 0 -16 -4 -30 -10 -30 -6 0 -10 28 -10 65 0 37 4 65 10 65 6 0
10 -12 10 -26z m230 6 c44 -44 13 -110 -52 -113 l-33 -2 -3 68 -3 67 36 0 c22
0 43 -8 55 -20z m-955 0 c3 -5 -1 -10 -9 -10 -9 0 -16 5 -16 10 0 6 4 10 9 10
6 0 13 -4 16 -10z m-943 -37 c34 -31 17 -83 -27 -83 -43 0 -60 47 -28 82 20
22 31 23 55 1z m369 7 c24 -13 27 -78 4 -86 -54 -21 -99 43 -55 78 26 21 26
21 51 8z m163 -3 c12 -9 17 -23 14 -47 -3 -30 -7 -35 -31 -38 -55 -6 -79 51
-35 82 27 19 30 19 52 3z m100 -3 c9 -8 16 -19 16 -24 0 -10 -25 -20 -51 -20
-12 0 -17 -4 -13 -11 3 -6 17 -8 30 -5 24 6 33 -7 13 -19 -21 -14 -59 5 -65
32 -5 20 -2 31 16 45 27 22 34 22 54 2z m361 -20 c-9 -10 -14 -25 -12 -35 3
-12 0 -19 -9 -19 -9 0 -14 12 -14 35 0 28 5 38 23 44 27 11 34 -3 12 -25z
m105 -20 c0 -42 -1 -44 -29 -44 -55 0 -75 66 -28 87 40 18 57 5 57 -43z m110
1 c0 -19 -4 -35 -10 -35 -5 0 -10 14 -10 30 0 23 -4 30 -20 30 -15 0 -20 -7
-20 -29 0 -29 -14 -49 -23 -34 -2 5 -2 25 0 45 4 28 10 38 27 40 37 7 56 -10
56 -47z m191 45 c6 0 9 -19 7 -42 -3 -36 -7 -44 -26 -46 -31 -5 -52 15 -52 49
0 29 25 52 48 44 8 -3 18 -5 23 -5z m-1485 -15 c-10 -8 -19 -26 -20 -40 -1
-28 -19 -35 -24 -10 -2 9 -1 27 2 41 5 18 13 24 34 24 26 -1 26 -1 8 -15z
m1024 -25 c0 -22 -4 -40 -10 -40 -5 0 -10 18 -10 40 0 22 5 40 10 40 6 0 10
-18 10 -40z m-828 -35 c0 -5 -5 -11 -11 -13 -6 -2 -11 4 -11 13 0 9 5 15 11
13 6 -2 11 -8 11 -13z m1348 2 c0 -7 -7 -22 -15 -33 -12 -16 -14 -17 -15 -2 0
23 11 48 21 48 5 0 9 -6 9 -13z m320 4 c0 -6 -4 -13 -10 -16 -5 -3 -10 1 -10
9 0 9 5 16 10 16 6 0 10 -4 10 -9z m181 -4 c-1 -12 -15 -9 -19 4 -3 6 1 10 8
8 6 -3 11 -8 11 -12z m-1499 -331 c45 -44 117 -112 159 -153 42 -40 79 -73 83
-73 3 0 6 65 6 145 l0 145 60 0 60 0 0 -280 c0 -154 -3 -280 -7 -280 -5 0 -82
70 -173 155 l-165 154 -3 -145 -3 -144 -59 0 -60 0 0 281 c0 164 4 279 9 277
5 -1 47 -39 93 -82z m1518 -470 c0 -7 -22 -9 -66 -6 -64 5 -67 6 -83 40 l-16
35 -108 3 -108 3 -17 -40 -17 -41 -62 0 c-36 0 -63 4 -63 10 0 6 61 133 136
283 l137 272 133 -274 c74 -151 134 -279 134 -285z m305 541 l50 -13 3 -62 c2
-34 0 -62 -3 -62 -3 0 -24 9 -46 21 -73 37 -164 11 -133 -38 6 -10 47 -39 92
-65 122 -72 156 -129 132 -218 -29 -107 -158 -158 -295 -116 l-40 12 -6 64
c-3 36 -4 67 -2 69 2 3 24 -5 51 -17 70 -31 89 -35 127 -22 25 8 37 19 42 38
7 29 -9 46 -117 115 -80 52 -110 94 -110 154 0 61 25 99 84 128 56 28 97 31
171 12z m-2730 -148 c33 -77 63 -143 66 -145 4 -2 35 61 69 141 l62 145 64 0
c62 0 74 -5 55 -25 -4 -6 -62 -128 -127 -273 -65 -144 -122 -261 -126 -260 -7
3 -258 543 -258 555 0 2 31 3 68 3 l68 0 59 -141z m705 86 l0 -55 -105 0 -105
0 0 -50 0 -50 90 0 90 0 0 -55 0 -55 -90 0 -90 0 0 -55 0 -55 105 0 105 0 0
-55 0 -55 -170 0 -170 0 0 270 0 270 170 0 170 0 0 -55z m991 31 c111 -40 169
-126 169 -247 0 -86 -20 -137 -71 -188 -61 -61 -108 -75 -256 -79 l-133 -4 0
272 0 272 123 -5 c78 -3 139 -11 168 -21z m-1521 -687 c56 -25 105 -72 132
-124 25 -49 35 -154 19 -212 -16 -57 -67 -121 -126 -158 -43 -27 -57 -30 -129
-30 -64 0 -90 5 -122 22 -49 26 -100 82 -125 137 -22 48 -25 148 -7 210 15 52
111 151 159 164 60 18 150 13 199 -9z m420 -124 c85 -80 158 -145 163 -145 4
0 7 63 7 140 l0 140 55 0 55 0 0 -270 c0 -148 -3 -270 -7 -270 -5 0 -78 65
-163 145 -85 79 -158 145 -162 145 -5 0 -8 -63 -8 -140 l0 -140 -55 0 -55 0 0
270 c0 149 3 270 8 270 4 0 77 -65 162 -145z m1215 -4 l160 -149 3 144 3 144
54 0 55 0 0 -271 c0 -156 -4 -269 -9 -267 -5 2 -77 66 -160 143 -83 77 -155
141 -159 143 -4 1 -7 -60 -7 -135 l0 -138 -57 -2 -58 -1 0 269 c0 148 3 269 8
269 4 0 79 -67 167 -149z m-687 -68 l2 -203 100 0 100 0 0 -58 0 -57 -162 0
-163 0 -3 250 c-1 137 0 256 3 263 3 9 22 12 62 10 l58 -3 3 -202z m392 -57
l0 -265 -62 2 -63 2 -3 250 c-1 137 0 255 3 262 3 9 25 13 65 13 l60 0 0 -264z
m1012 252 c3 -7 3 -32 0 -55 l-4 -43 -100 0 -99 0 3 -47 3 -48 85 -3 86 -3 -1
-47 -1 -47 -88 -3 -87 -3 3 -52 3 -52 103 -3 102 -3 0 -54 0 -55 -162 2 -163
3 -3 250 c-1 137 0 255 3 262 6 18 311 19 317 1z m308 -13 c0 -9 -7 -18 -15
-21 -9 -4 -15 -19 -15 -35 0 -17 6 -32 15 -35 9 -4 15 -19 15 -40 0 -26 -6
-37 -30 -51 -37 -22 -39 -35 -2 -31 19 2 27 -2 27 -12 0 -12 -16 -16 -73 -18
-82 -3 -92 5 -75 61 7 25 15 33 36 35 16 2 35 -2 43 -9 12 -10 19 -8 36 9 l21
21 -66 32 c-37 19 -67 36 -67 39 0 7 121 69 138 69 6 1 12 -6 12 -14z m0 -279
c0 -8 -7 -16 -15 -20 -9 -3 -15 -18 -15 -35 0 -16 6 -31 15 -35 17 -6 21 -36
5 -36 -16 0 -140 64 -140 72 0 8 119 67 138 68 6 0 12 -6 12 -14z m-76 -132
c9 -8 16 -24 16 -35 0 -14 7 -19 30 -19 20 0 30 -5 30 -15 0 -12 -16 -15 -80
-15 l-80 0 0 28 c0 58 49 91 84 56z m-2306 -268 c3 -24 1 -28 -15 -21 -58 24
-68 -5 -14 -39 48 -31 60 -65 37 -101 -18 -27 -48 -38 -92 -33 -25 3 -29 8
-32 36 -3 31 -2 33 17 23 29 -16 61 -14 61 4 0 8 -18 27 -40 41 -22 15 -41 34
-41 43 -4 56 22 83 75 79 37 -3 41 -6 44 -32z m202 19 c101 -52 62 -215 -50
-215 -109 0 -151 153 -58 210 39 24 69 25 108 5z m165 -45 l60 -60 3 55 c3 51
5 55 27 55 l25 0 0 -110 c0 -60 -4 -110 -8 -110 -4 0 -32 25 -62 55 -30 30
-58 55 -62 55 -4 0 -8 -24 -10 -52 -3 -45 -6 -53 -23 -53 -19 0 -20 8 -23 113
-1 61 1 112 5 112 4 -1 35 -27 68 -60z m345 -161 c0 -18 -49 -9 -60 11 -8 15
-21 20 -50 20 -29 0 -42 -5 -50 -20 -13 -23 -50 -27 -50 -5 0 9 23 61 51 118
l52 102 53 -108 c30 -60 54 -113 54 -118z m770 115 c27 -59 50 -110 50 -113 0
-15 -40 -8 -56 10 -22 25 -75 25 -98 0 -12 -13 -29 -18 -62 -16 -40 1 -48 6
-72 41 l-27 39 -5 -40 c-4 -32 -9 -41 -27 -43 -23 -3 -23 -2 -23 107 l0 111
54 0 c47 0 57 -4 75 -26 26 -33 26 -45 0 -78 l-20 -26 23 -29 c13 -17 25 -30
28 -30 3 -1 28 44 55 99 27 55 50 100 52 100 1 0 25 -48 53 -106z m304 -4 c3
0 6 23 6 50 0 47 2 50 25 50 l25 0 0 -110 c0 -60 -3 -110 -7 -110 -4 0 -36 28
-70 62 l-63 62 0 -62 c0 -60 -1 -63 -22 -60 -22 3 -23 7 -26 117 l-3 113 64
-56 c35 -31 67 -56 71 -56z m560 104 c9 -3 16 -17 16 -31 0 -21 -3 -23 -22
-18 -37 11 -42 11 -45 -5 -2 -9 12 -23 34 -35 51 -27 64 -65 36 -103 -17 -23
-27 -27 -68 -27 -44 0 -49 2 -56 27 -7 28 4 47 16 28 3 -5 19 -10 36 -10 42 0
37 25 -10 54 -44 28 -57 55 -41 85 18 35 64 50 104 35z m-2884 -14 c57 -30 44
-102 -21 -122 -37 -10 -39 -14 -39 -50 0 -30 -4 -38 -18 -38 -34 0 -42 21 -42
115 0 51 3 95 7 98 10 11 92 8 113 -3z m198 -12 c-3 -20 -8 -23 -40 -20 -33 3
-38 1 -38 -17 0 -17 6 -21 36 -21 31 0 35 -3 32 -22 -2 -17 -11 -24 -36 -28
-18 -3 -33 -8 -32 -12 0 -5 0 -12 0 -18 0 -5 18 -10 41 -10 36 0 40 -2 37 -22
-3 -24 -1 -24 -108 -19 l-30 1 0 105 0 105 71 0 c67 0 70 -1 67 -22z m160 6
c26 -18 30 -69 6 -95 -15 -16 -14 -20 10 -52 33 -42 33 -57 1 -57 -18 0 -32
11 -52 42 l-28 42 -5 -40 c-4 -34 -8 -39 -30 -39 -25 0 -25 0 -28 108 l-3 107
53 0 c32 0 62 -6 76 -16z m962 -70 l0 -86 38 4 c33 3 37 0 40 -22 3 -24 1 -25
-63 -25 l-65 0 0 108 0 107 25 0 c25 0 25 -1 25 -86z m355 61 c0 -16 -7 -20
-30 -20 l-30 0 -5 -85 c-5 -83 -6 -85 -30 -85 -24 0 -25 2 -28 83 l-3 82 -28
0 c-20 0 -30 6 -34 19 -3 11 -2 23 1 26 3 3 47 4 97 3 82 -3 90 -5 90 -23z
m467 -65 c4 -106 0 -125 -27 -125 -19 0 -20 8 -23 108 l-3 107 25 0 c24 0 25
-2 28 -90z m416 68 c-3 -20 -8 -23 -40 -20 -33 3 -38 1 -38 -17 0 -15 8 -20
33 -23 24 -2 32 -8 32 -23 0 -15 -8 -21 -32 -23 -25 -3 -33 -8 -33 -23 0 -15
6 -20 23 -19 49 4 58 1 55 -22 -3 -20 -9 -22 -68 -22 l-65 0 -3 107 -3 107 71
0 c68 0 71 -1 68 -22z m162 4 c27 -22 29 -65 5 -92 -16 -18 -16 -20 9 -53 33
-43 33 -54 0 -54 -19 0 -32 10 -52 40 l-27 41 -5 -40 c-3 -23 -10 -39 -17 -38
-44 4 -43 0 -43 109 l0 105 54 0 c37 0 61 -6 76 -18z m-1243 -323 c90 -34 139
-158 99 -252 -18 -44 -77 -94 -127 -107 -81 -22 -158 9 -206 81 -23 35 -28 53
-28 104 0 78 35 137 98 166 47 21 121 25 164 8z m-307 -169 l0 -40 -640 0
-640 0 0 40 0 40 640 0 640 0 0 -40z m1750 0 l0 -40 -645 0 -645 0 0 40 0 40
645 0 645 0 0 -40z m-442 -333 c6 -5 12 -16 12 -24 0 -10 -4 -11 -19 -3 -65
34 -131 -7 -131 -82 0 -73 59 -105 134 -73 14 6 17 4 14 -11 -4 -22 -56 -39
-94 -30 -14 4 -39 20 -55 36 -24 24 -29 37 -29 79 0 42 5 56 30 85 38 43 99
53 138 23z m-2422 -1 c26 -19 13 -29 -20 -16 -41 15 -53 13 -87 -18 -26 -23
-32 -36 -32 -71 0 -57 32 -91 84 -91 21 0 41 5 44 10 9 14 25 12 25 -3 0 -16
-41 -37 -71 -37 -28 0 -75 26 -93 52 -9 13 -16 43 -16 71 0 42 5 54 34 83 27
27 42 34 73 34 22 0 48 -6 59 -14z m220 -20 c29 -29 34 -41 34 -83 0 -55 -17
-86 -62 -109 -90 -47 -189 64 -143 160 35 73 115 88 171 32z m314 -188 c0 -5
-6 -8 -14 -8 -10 0 -18 22 -27 70 -6 38 -15 67 -19 65 -4 -3 -18 -32 -30 -65
-12 -33 -27 -63 -31 -66 -8 -5 -25 28 -61 116 -12 29 -16 22 -32 -59 -6 -30
-17 -56 -25 -59 -10 -3 -12 3 -7 24 25 129 40 194 45 194 3 0 20 -35 37 -78
17 -42 35 -76 39 -75 7 1 30 51 70 148 6 15 14 -9 31 -90 13 -60 23 -113 24
-117z m204 192 c81 -72 37 -205 -69 -205 -106 0 -148 138 -64 209 43 36 89 35
133 -4z m246 -59 c18 -45 37 -78 40 -74 6 8 39 82 60 139 6 15 13 25 15 22 5
-5 45 -203 45 -220 0 -5 -6 -8 -14 -8 -9 0 -18 24 -27 72 l-14 72 -29 -69
c-16 -39 -32 -74 -36 -78 -4 -4 -19 23 -35 60 -15 37 -31 72 -35 76 -4 4 -12
-24 -19 -63 -9 -50 -17 -70 -28 -70 -11 0 -14 7 -10 23 3 12 14 63 23 114 10
51 20 90 24 88 3 -2 21 -40 40 -84z m230 4 c0 -72 3 -88 20 -105 24 -24 57
-26 82 -3 15 13 18 32 18 105 0 72 3 88 15 88 12 0 15 -16 15 -86 0 -116 -22
-153 -90 -153 -19 -1 -46 8 -60 19 -23 17 -25 26 -28 119 -3 87 -2 101 12 101
13 0 16 -14 16 -85z m235 -16 l0 -94 53 -3 c37 -2 52 -7 52 -18 0 -11 -16 -14
-70 -14 l-70 0 0 108 c0 60 3 112 7 116 20 20 28 -8 28 -95z m265 87 c0 -10
-13 -16 -37 -18 l-38 -3 -3 -97 c-2 -78 -6 -98 -17 -98 -12 0 -15 19 -15 100
l0 100 -40 0 c-38 0 -49 8 -33 23 3 4 46 7 95 7 70 0 88 -3 88 -14z m60 -101
c0 -96 -3 -115 -15 -115 -12 0 -15 19 -15 108 0 60 3 112 7 115 18 19 23 -3
23 -108z m165 99 c68 -32 48 -110 -33 -128 -39 -9 -41 -12 -44 -50 -2 -23 -7
-41 -13 -41 -10 0 -20 198 -11 222 7 18 61 16 101 -3z m105 -83 l0 -100 52 -3
c30 -2 53 -8 56 -15 3 -10 -15 -13 -67 -13 l-71 0 0 108 c0 60 3 112 7 115 18
19 23 -1 23 -92z m168 -19 c2 -95 0 -112 -13 -112 -13 0 -15 18 -15 116 0 88
3 115 13 112 8 -3 13 -38 15 -116z m405 0 c26 -56 47 -104 47 -107 0 -3 -7 -5
-15 -5 -9 0 -20 11 -25 25 -9 22 -15 25 -63 25 -48 0 -55 -3 -65 -25 -6 -14
-18 -25 -27 -25 -20 0 -20 -3 21 87 20 43 43 93 51 112 8 18 18 30 22 25 4 -5
28 -55 54 -112z m204 84 c30 -36 29 -52 -6 -86 l-30 -27 35 -33 c39 -39 42
-50 14 -50 -11 0 -20 3 -20 8 0 11 -70 82 -81 82 -5 0 -9 -20 -9 -45 0 -33 -4
-45 -15 -45 -12 0 -15 20 -15 116 l0 117 52 -5 c40 -4 57 -11 75 -32z m-944
-479 l127 -147 0 145 0 145 25 0 25 0 0 -205 c0 -118 -4 -205 -9 -205 -5 0
-11 4 -13 9 -1 5 -57 72 -123 150 l-120 140 -5 -142 c-5 -138 -6 -142 -27
-145 l-23 -3 0 212 c0 117 4 209 8 204 5 -6 66 -76 135 -158z m-1864 142 c23
-8 31 -17 31 -35 0 -24 -1 -24 -30 -9 -62 32 -132 12 -132 -38 0 -37 15 -53
89 -88 69 -33 103 -73 103 -122 0 -72 -67 -124 -145 -114 -64 9 -95 26 -95 54
0 27 6 28 40 8 14 -8 46 -14 72 -15 39 0 50 4 67 27 36 45 12 86 -73 126 -91
43 -125 106 -92 166 26 47 96 64 165 40z m765 -193 c47 -103 86 -191 86 -195
0 -4 -10 -7 -22 -7 -16 0 -27 13 -45 53 l-24 53 -94 0 -93 0 -18 -46 c-11 -30
-26 -49 -42 -55 -14 -5 -26 -8 -28 -6 -2 1 38 94 88 205 51 111 95 199 99 194
4 -4 46 -92 93 -196z m1989 11 c48 -105 89 -196 90 -202 1 -5 -8 -11 -20 -13
-19 -3 -27 6 -50 52 l-27 56 -89 -1 -89 -1 -25 -55 c-20 -44 -29 -54 -46 -51
-12 2 -21 10 -19 17 5 23 176 391 181 391 4 0 46 -87 94 -193z m-2573 66 c1
-142 10 -191 45 -220 34 -30 102 -31 138 -3 37 29 47 76 47 218 0 117 1 122
21 122 20 0 21 -3 17 -154 -3 -137 -5 -158 -24 -182 -52 -70 -121 -90 -198
-56 -72 32 -86 71 -86 250 0 135 1 142 20 142 19 0 20 -7 20 -117z m1064 103
c45 -19 66 -52 66 -104 0 -35 -6 -49 -29 -73 -16 -16 -37 -29 -45 -29 -9 0
-16 -3 -16 -6 0 -3 29 -41 65 -84 36 -43 65 -81 65 -84 0 -3 -13 -6 -28 -6
-23 0 -39 13 -83 67 -68 84 -88 103 -110 103 -16 0 -19 -11 -21 -82 -3 -77 -5
-83 -25 -86 l-23 -3 0 200 0 201 75 0 c42 0 90 -6 109 -14z m386 -6 c0 -17 -8
-19 -82 -22 l-83 -3 -3 -62 -3 -63 76 0 c68 0 75 -2 75 -20 0 -18 -7 -20 -75
-20 l-75 0 0 -70 0 -69 88 -3 c79 -3 87 -5 87 -23 0 -19 -7 -20 -110 -20
l-110 0 -3 198 -2 197 110 0 c103 0 110 -1 110 -20z m740 -10 c137 -76 130
-269 -12 -341 -27 -14 -69 -22 -129 -26 l-89 -6 0 203 0 202 93 -4 c74 -3 101
-8 137 -28z m-1179 -555 c29 -36 55 -65 58 -65 4 0 6 25 6 57 0 36 4 58 13 60
9 4 12 -19 12 -94 l-1 -98 -27 30 c-15 17 -42 48 -59 70 l-33 40 0 -63 c0 -48
-3 -62 -15 -62 -12 0 -15 17 -15 95 0 52 2 95 4 95 2 0 28 -29 57 -65z m455
31 c36 -36 43 -70 23 -109 -32 -62 -98 -75 -143 -28 -62 65 -21 167 68 170 10
1 33 -14 52 -33z m682 28 c37 -10 27 -34 -12 -27 -18 3 -43 0 -54 -6 -26 -14
-38 -70 -22 -100 15 -29 55 -44 81 -30 29 15 45 6 25 -14 -10 -9 -31 -17 -47
-17 -91 0 -128 115 -57 175 30 26 46 29 86 19z m306 0 c9 -3 16 -12 16 -20 0
-10 -8 -12 -31 -7 -21 4 -34 1 -39 -8 -12 -18 -5 -26 40 -49 43 -22 57 -49 40
-80 -19 -36 -110 -39 -110 -4 0 12 5 14 18 9 31 -14 54 -10 66 9 9 15 7 20 -8
30 -75 45 -93 83 -54 110 24 17 38 19 62 10z m-2664 -14 c0 -5 -13 -10 -30
-10 l-30 0 0 -80 c0 -64 -3 -80 -15 -80 -12 0 -15 16 -15 80 l0 80 -35 0 c-19
0 -35 5 -35 10 0 6 33 10 80 10 47 0 80 -4 80 -10z m122 -7 c25 -22 23 -59 -4
-77 l-23 -16 32 -32 32 -32 35 78 c20 43 36 82 36 87 0 5 4 9 9 9 9 0 91 -163
91 -181 0 -15 -29 2 -35 22 -9 28 -91 28 -100 -1 -5 -15 -15 -20 -39 -20 -27
0 -39 7 -60 35 -15 19 -31 35 -37 35 -5 0 -9 -16 -9 -35 0 -24 -5 -35 -15 -35
-12 0 -15 17 -15 90 l0 90 42 0 c24 0 49 -7 60 -17z m326 5 c15 -15 16 -50 2
-64 -8 -8 -6 -15 5 -24 39 -32 2 -80 -62 -80 l-43 0 0 90 0 90 43 0 c24 0 48
-5 55 -12z m161 -74 c23 -47 41 -88 41 -90 0 -14 -30 0 -35 16 -5 16 -15 20
-52 20 -36 0 -46 -4 -50 -20 -4 -17 -33 -30 -33 -15 0 10 79 175 84 175 2 0
23 -39 45 -86z m81 6 l0 -80 45 0 c25 0 45 -4 45 -10 0 -5 -25 -10 -55 -10
l-55 0 0 90 c0 53 4 90 10 90 6 0 10 -33 10 -80z m140 45 c0 -19 3 -35 8 -36
80 -8 82 -7 82 33 0 27 4 38 15 38 12 0 15 -17 15 -90 0 -73 -3 -90 -15 -90
-11 0 -15 11 -15 40 l0 40 -45 0 -45 0 0 -40 c0 -29 -4 -40 -15 -40 -12 0 -15
17 -15 90 0 73 3 90 15 90 10 0 15 -11 15 -35z m270 -51 c22 -47 40 -90 40
-95 0 -15 -29 2 -35 22 -9 28 -91 28 -100 -1 -5 -16 -35 -30 -35 -16 0 9 82
176 86 176 3 0 23 -39 44 -86z m377 62 c22 -19 28 -32 28 -65 0 -55 -29 -82
-94 -91 -45 -6 -50 -4 -54 14 -7 35 -8 107 -2 137 6 27 10 29 50 29 32 0 52
-7 72 -24z m443 14 c0 -5 -18 -10 -40 -10 -38 0 -40 -2 -40 -30 0 -28 3 -30
36 -30 21 0 33 -4 29 -10 -3 -5 -19 -10 -36 -10 -26 0 -29 -3 -29 -30 0 -28 3
-30 34 -30 19 0 38 -4 41 -10 4 -6 -15 -10 -49 -10 l-56 0 0 90 0 90 55 0 c30
0 55 -4 55 -10z m70 1 c0 -5 12 -35 26 -67 23 -51 28 -56 35 -39 5 11 18 42
30 70 15 36 23 46 28 35 11 -21 34 -160 28 -167 -11 -11 -27 9 -28 35 0 15 -4
36 -9 47 -7 19 -8 19 -18 -5 -5 -14 -16 -41 -24 -60 l-15 -35 -30 65 -29 65
-13 -62 c-6 -35 -16 -63 -22 -63 -13 0 -12 13 8 108 9 45 21 82 25 82 4 0 8
-4 8 -9z m540 -80 c46 -94 45 -91 26 -91 -8 0 -18 9 -21 20 -9 29 -91 29 -100
1 -6 -20 -35 -37 -35 -21 0 17 80 183 85 178 3 -3 23 -42 45 -87z m307 -1 c29
-63 37 -90 28 -90 -8 0 -19 9 -25 20 -8 15 -21 20 -50 20 -29 0 -42 -5 -50
-20 -6 -11 -17 -20 -25 -20 -9 0 -1 26 28 90 22 50 43 90 46 90 4 0 25 -40 48
-90z m-1389 -289 c3 -8 -1 -12 -9 -9 -7 2 -15 10 -17 17 -3 8 1 12 9 9 7 -2
15 -10 17 -17z m-18 -21 c0 -5 -4 -10 -10 -10 -5 0 -10 5 -10 10 0 6 5 10 10
10 6 0 10 -4 10 -10z m140 -23 c0 -5 -14 -32 -31 -60 -24 -39 -28 -52 -17 -58
11 -7 11 -12 0 -30 -11 -17 -11 -23 -2 -29 9 -6 10 -22 5 -55 l-7 -48 33 19
c21 13 34 28 36 47 3 23 0 27 -22 27 -15 0 -24 4 -20 10 9 15 41 12 55 -5 9
-11 10 -18 1 -28 -6 -8 -8 -16 -5 -19 7 -8 -55 -58 -71 -58 -8 0 -19 -8 -24
-18 -8 -15 -18 -17 -58 -13 -42 5 -48 9 -51 32 -2 15 6 36 17 50 l20 24 -12
-33 c-10 -27 -9 -34 2 -42 9 -5 19 -3 28 6 8 8 18 14 23 14 14 0 23 41 11 53
-17 17 -14 47 4 41 18 -7 19 0 3 27 -11 17 -10 23 0 26 9 4 4 20 -18 58 -16
29 -30 57 -30 63 0 7 24 11 65 10 36 0 65 -5 65 -11z m-410 -106 c0 -5 -7 -17
-16 -25 -9 -9 -11 -16 -4 -16 6 0 21 11 33 23 21 23 57 32 57 15 0 -4 7 -8 16
-8 10 0 14 -6 10 -15 -3 -8 -1 -15 3 -15 5 0 11 6 14 13 3 9 26 14 66 15 59 2
61 1 61 -23 0 -18 -5 -25 -20 -25 -11 0 -20 7 -20 15 0 8 -4 15 -10 15 -5 0
-10 -6 -10 -13 0 -10 -27 -13 -112 -12 l-113 0 -3 33 c-3 29 -1 32 22 32 14 0
26 -4 26 -9z"/>
<path d="M600 4740 c0 -16 5 -21 23 -18 12 2 22 10 22 18 0 8 -10 16 -22 18
-18 3 -23 -2 -23 -18z"/>
<path d="M1020 4740 c0 -16 5 -21 23 -18 12 2 22 10 22 18 0 8 -10 16 -22 18
-18 3 -23 -2 -23 -18z"/>
<path d="M2050 4705 c-16 -19 -5 -47 17 -43 11 2 18 12 18 27 0 29 -17 37 -35
16z"/>
<path d="M2370 4736 c0 -19 4 -23 20 -19 11 3 20 14 20 24 0 12 -7 19 -20 19
-14 0 -20 -7 -20 -24z"/>
<path d="M2630 4716 c0 -52 7 -59 41 -43 45 23 33 87 -17 87 -22 0 -24 -4 -24
-44z"/>
<path d="M755 4700 c-8 -26 7 -45 30 -36 21 8 16 50 -7 54 -10 2 -19 -5 -23
-18z"/>
<path d="M1130 4705 c-16 -19 -5 -47 17 -43 11 2 18 12 18 27 0 29 -17 37 -35
16z"/>
<path d="M1290 4705 c-16 -19 -5 -47 17 -43 11 2 18 12 18 27 0 29 -17 37 -35
16z"/>
<path d="M1395 4710 c-3 -5 3 -10 15 -10 12 0 18 5 15 10 -3 6 -10 10 -15 10
-5 0 -12 -4 -15 -10z"/>
<path d="M1847 4713 c-4 -3 -7 -17 -7 -30 0 -16 6 -23 20 -23 16 0 20 7 20 30
0 28 -17 40 -33 23z"/>
<path d="M2152 4703 c-13 -25 -4 -43 19 -43 16 0 20 6 17 27 -4 32 -23 41 -36
16z"/>
<path d="M2472 4106 c-18 -42 -32 -78 -32 -81 0 -3 31 -5 69 -5 l69 0 -30 73
c-17 39 -33 76 -38 80 -4 4 -21 -26 -38 -67z"/>
<path d="M1885 4268 c-3 -8 -4 -79 -3 -158 l3 -145 53 2 c105 5 157 62 150
165 -6 87 -47 124 -161 143 -27 4 -39 2 -42 -7z"/>
<path d="M370 3573 c-53 -28 -80 -75 -80 -142 0 -76 24 -120 80 -149 97 -48
190 22 190 143 0 118 -99 195 -190 148z"/>
<path d="M3110 3619 c-13 -8 -13 -10 0 -19 21 -14 30 -12 30 4 0 20 -13 27
-30 15z"/>
<path d="M3065 3480 c-8 -14 3 -30 21 -30 8 0 14 9 14 20 0 21 -24 28 -35 10z"/>
<path d="M3110 3340 c-13 -9 -13 -11 0 -20 22 -15 30 -12 30 10 0 22 -8 25
-30 10z"/>
<path d="M3067 3234 c-14 -15 -6 -34 14 -34 14 0 19 5 17 17 -3 18 -20 27 -31
17z"/>
<path d="M921 2943 c-44 -55 25 -137 72 -85 34 38 10 112 -36 112 -8 0 -25
-12 -36 -27z"/>
<path d="M1400 2911 c0 -5 -3 -16 -6 -24 -3 -9 3 -16 15 -20 23 -6 24 -3 15
31 -6 21 -24 31 -24 13z"/>
<path d="M2020 2940 c0 -34 11 -38 35 -14 12 12 13 19 4 30 -20 24 -39 16 -39
-16z"/>
<path d="M2222 2900 c-10 -26 -3 -34 22 -28 13 3 13 7 1 28 l-14 25 -9 -25z"/>
<path d="M210 2945 c0 -18 5 -25 19 -25 23 0 34 23 18 39 -19 19 -37 12 -37
-14z"/>
<path d="M560 2941 c0 -32 6 -37 28 -22 19 11 11 45 -11 49 -13 3 -17 -3 -17
-27z"/>
<path d="M2920 2941 c0 -32 6 -37 28 -22 19 11 11 45 -11 49 -13 3 -17 -3 -17
-27z"/>
<path d="M1628 2641 c-16 -18 -28 -36 -28 -41 0 -7 52 -21 58 -15 2 2 2 22 0
46 l-3 43 -27 -33z"/>
<path d="M1680 2624 c0 -45 0 -46 27 -39 16 4 30 8 32 11 5 5 -42 74 -51 74
-5 0 -8 -21 -8 -46z"/>
<path d="M1577 2642 c-27 -17 -31 -32 -10 -39 12 -4 50 44 42 52 -2 2 -17 -4
-32 -13z"/>
<path d="M1730 2655 c0 -18 33 -53 46 -48 21 8 17 17 -16 36 -16 10 -30 15
-30 12z"/>
<path d="M1515 2570 c-24 -45 -20 -66 12 -64 22 0 29 7 36 34 16 62 -20 85
-48 30z"/>
<path d="M1776 2592 c-8 -13 5 -81 16 -88 5 -3 20 -3 33 0 24 6 24 19 0 79 -7
18 -40 24 -49 9z"/>
<path d="M1585 2569 c-3 -8 -6 -25 -7 -39 -3 -23 0 -25 40 -26 41 -1 42 -1 42
32 0 21 -5 34 -12 34 -7 0 -23 3 -35 6 -15 4 -25 1 -28 -7z"/>
<path d="M1707 2573 c-25 -4 -28 -8 -25 -35 3 -28 7 -31 41 -33 44 -2 49 2 39
40 -9 31 -14 34 -55 28z"/>
<path d="M1500 2470 c0 -24 27 -80 38 -80 23 1 30 18 25 58 -5 38 -8 42 -34
42 -23 0 -29 -5 -29 -20z"/>
<path d="M1576 2463 c3 -16 7 -33 9 -39 2 -6 19 -8 39 -6 33 4 36 7 36 38 0
34 0 34 -45 34 -44 0 -45 -1 -39 -27z"/>
<path d="M1680 2456 c0 -31 3 -34 36 -38 31 -4 37 -1 45 20 17 45 12 52 -36
52 -44 0 -45 0 -45 -34z"/>
<path d="M1777 2448 c-6 -42 2 -57 29 -58 11 0 44 68 44 90 0 6 -15 10 -34 10
-32 0 -34 -2 -39 -42z"/>
<path d="M1618 2403 c-10 -2 -18 -10 -18 -16 1 -12 45 -67 55 -67 3 0 5 20 5
45 0 45 -3 48 -42 38z"/>
<path d="M1680 2365 c0 -53 8 -56 38 -15 28 37 28 46 0 54 -37 9 -38 8 -38
-39z"/>
<path d="M1563 2383 c-20 -7 -15 -17 17 -36 17 -10 30 -15 30 -10 -1 17 -35
50 -47 46z"/>
<path d="M1747 2364 c-11 -14 -17 -28 -14 -30 8 -9 58 28 54 39 -6 20 -22 16
-40 -9z"/>
<path d="M433 2140 c-38 -23 -52 -74 -33 -121 32 -76 134 -62 155 23 9 35 -18
92 -51 107 -32 14 -33 14 -71 -9z"/>
<path d="M961 2146 c-54 -30 -65 -97 -25 -145 36 -43 82 -43 119 1 23 27 26
39 22 71 -9 66 -66 101 -116 73z"/>
<path d="M2190 2105 c0 -39 3 -45 21 -45 28 0 55 16 63 36 9 24 -22 54 -56 54
-27 0 -28 -2 -28 -45z"/>
<path d="M2872 2094 c-5 -16 -13 -37 -17 -46 -6 -15 -1 -18 30 -18 33 0 36 2
29 23 -3 12 -12 33 -19 46 l-12 24 -11 -29z"/>
<path d="M3050 2105 c0 -39 3 -45 21 -45 34 0 59 19 59 45 0 26 -25 45 -59 45
-18 0 -21 -6 -21 -45z"/>
<path d="M971 1650 c-44 -99 -43 -100 33 -100 36 0 67 4 70 9 5 8 -60 161 -68
161 -2 0 -17 -32 -35 -70z"/>
<path d="M2965 1647 c-16 -40 -31 -75 -33 -79 -2 -5 28 -8 67 -8 l70 0 -30 73
c-17 39 -34 75 -38 79 -3 4 -19 -26 -36 -65z"/>
<path d="M1450 1696 l0 -76 46 0 c73 0 104 22 104 76 0 43 -28 64 -94 71 l-56
6 0 -77z"/>
<path d="M2530 1609 l0 -152 60 6 c108 9 164 61 164 150 0 94 -61 147 -168
147 l-56 0 0 -151z"/>
<path d="M1880 1240 c-38 -38 -17 -109 37 -125 30 -8 73 34 73 72 0 65 -66 97
-110 53z"/>
<path d="M360 1225 c0 -28 4 -35 19 -35 19 0 51 24 51 39 0 15 -25 31 -47 31
-20 0 -23 -5 -23 -35z"/>
<path d="M541 1207 c-16 -41 -14 -47 14 -47 28 0 31 13 10 50 l-13 25 -11 -28z"/>
<path d="M690 1236 c0 -30 24 -40 45 -20 19 20 19 30 -1 38 -30 12 -44 6 -44
-18z"/>
<path d="M688 1151 c3 -20 10 -31 21 -31 51 1 56 53 5 58 -29 3 -30 1 -26 -27z"/>
<path d="M858 1200 c-14 -34 -14 -35 10 -38 34 -5 38 3 20 41 l-16 32 -14 -35z"/>
<path d="M1352 1205 c-17 -37 -15 -45 13 -45 28 0 31 13 12 48 l-13 23 -12
-26z"/>
<path d="M1690 1190 c0 -64 2 -70 21 -70 23 0 60 18 71 34 4 6 8 23 8 38 0 31
-41 68 -76 68 -23 0 -24 -3 -24 -70z"/>
<path d="M2782 1205 c-17 -37 -15 -45 13 -45 28 0 31 13 12 48 l-13 23 -12
-26z"/>
<path d="M3087 1213 c-2 -10 -8 -26 -12 -35 -6 -15 -2 -18 25 -18 27 0 31 3
25 18 -4 9 -10 25 -12 35 -3 9 -9 17 -13 17 -4 0 -10 -8 -13 -17z"/>
<path d="M1780 842 c0 -10 36 -9 46 1 4 4 -5 7 -19 7 -15 0 -27 -4 -27 -8z"/>
<path d="M1780 573 c-24 -12 -24 -13 -3 -13 12 0 25 5 28 11 11 16 2 17 -25 2z"/>
<path d="M122 238 c-26 -26 -2 -75 31 -62 22 8 31 42 17 59 -15 18 -32 19 -48
3z m36 -25 c-4 -22 -22 -20 -26 1 -2 10 3 16 13 16 10 0 15 -7 13 -17z"/>
<path d="M520 214 c0 -27 4 -34 20 -34 12 0 20 7 20 18 1 15 2 15 12 -2 11
-19 11 -19 24 -1 13 17 14 17 14 2 0 -21 16 -22 24 -1 9 24 8 26 -21 24 -54
-4 -79 0 -65 9 10 6 9 10 -7 14 -18 4 -21 1 -21 -29z"/>
<path d="M741 225 c-19 -21 -21 -28 -11 -40 8 -10 17 -12 29 -5 10 5 23 5 31
0 19 -12 30 -3 30 22 0 16 -5 19 -24 16 -19 -4 -26 0 -28 13 -3 16 -6 16 -27
-6z"/>
<path d="M1120 231 c-13 -26 17 -65 43 -56 22 9 23 45 1 45 -10 0 -14 -6 -10
-15 5 -15 -5 -21 -17 -9 -9 10 4 34 19 34 8 0 14 5 14 10 0 18 -39 11 -50 -9z"/>
<path d="M1190 215 c0 -30 3 -35 23 -35 16 0 18 3 8 9 -10 6 -10 10 -1 16 9 6
9 10 -1 16 -10 6 -11 9 -1 9 6 0 12 5 12 10 0 6 -9 10 -20 10 -16 0 -20 -7
-20 -35z"/>
<path d="M1245 239 c-4 -5 1 -20 12 -31 16 -20 17 -21 1 -15 -20 7 -25 -8 -7
-19 6 -3 18 1 27 10 16 16 16 18 -2 32 -11 8 -14 14 -8 14 7 0 12 5 12 10 0
13 -27 13 -35 -1z"/>
<path d="M1290 240 c0 -5 5 -10 10 -10 6 0 10 -11 10 -25 0 -14 5 -25 10 -25
6 0 10 11 10 25 0 14 5 25 10 25 6 0 10 5 10 10 0 6 -13 10 -30 10 -16 0 -30
-4 -30 -10z"/>
<path d="M1422 238 c-17 -17 -15 -32 8 -53 16 -15 22 -16 35 -5 22 19 15 64
-10 68 -11 1 -26 -3 -33 -10z m38 -22 c0 -8 -4 -17 -9 -21 -12 -7 -24 12 -16
25 9 15 25 12 25 -4z"/>
<path d="M1520 215 c0 -30 3 -35 24 -35 13 0 26 6 28 12 3 9 10 8 22 -5 10 -9
22 -14 28 -11 7 4 6 9 -2 14 -10 6 -10 9 0 15 9 6 9 10 -1 16 -10 6 -11 9 -1
9 6 0 12 5 12 10 0 6 -9 10 -20 10 -12 0 -20 -7 -20 -17 0 -15 -1 -15 -18 0
-32 29 -52 22 -52 -18z m40 -6 c0 -5 -4 -9 -10 -9 -5 0 -10 7 -10 16 0 8 5 12
10 9 6 -3 10 -10 10 -16z"/>
<path d="M1677 243 c-22 -21 8 -83 33 -68 17 10 114 13 126 3 13 -10 13 40 0
60 -15 25 -36 12 -36 -20 -1 -31 -2 -32 -15 -14 -8 10 -16 24 -19 30 -4 10
-19 -3 -28 -25 -2 -4 -13 -9 -24 -13 -15 -5 -24 -2 -28 10 -4 11 0 18 14 21
11 3 20 9 20 14 0 10 -34 12 -43 2z"/>
<path d="M1860 214 c0 -27 4 -35 14 -31 7 3 18 1 24 -5 11 -11 10 41 -2 60
-16 26 -36 12 -36 -24z"/>
<path d="M1920 216 c0 -37 11 -45 47 -38 19 4 23 11 23 39 0 20 -4 32 -10 28
-5 -3 -10 -17 -10 -31 0 -15 -6 -24 -16 -24 -13 0 -14 3 -5 14 9 11 9 15 -1
19 -10 4 -10 6 0 6 20 2 13 21 -8 21 -16 0 -20 -7 -20 -34z"/>
<path d="M2007 244 c-11 -11 -8 -64 3 -64 6 0 10 5 10 12 0 7 7 5 18 -5 12
-11 22 -13 32 -7 8 5 23 7 33 4 20 -6 21 -3 5 31 -14 32 -22 32 -37 -1 -13
-29 -25 -25 -26 9 0 21 -24 34 -38 21z"/>
<path d="M2154 226 c-3 -14 -3 -30 1 -35 8 -14 38 -14 52 0 9 9 16 8 28 -5 20
-19 27 -20 43 -4 30 30 -3 82 -39 60 -14 -9 -25 -9 -39 -2 -29 15 -39 12 -46
-14z m43 -22 c-9 -9 -28 6 -21 18 4 6 10 6 17 -1 6 -6 8 -13 4 -17z m71 9 c-4
-22 -22 -20 -26 1 -2 10 3 16 13 16 10 0 15 -7 13 -17z"/>
<path d="M2330 213 l0 -36 25 23 25 23 0 -22 c0 -20 4 -22 48 -20 26 2 57 0
69 -4 14 -5 26 -3 35 7 11 12 15 12 31 -1 15 -15 19 -14 37 2 11 10 20 13 20
7 0 -7 5 -12 10 -12 6 0 10 7 10 16 0 13 5 12 27 -6 17 -13 30 -17 36 -11 6 6
31 8 56 6 25 -3 40 -3 34 1 -7 3 -13 19 -13 35 0 40 -18 37 -22 -3 l-4 -33
-15 35 -16 35 -17 -32 c-20 -39 -30 -43 -24 -8 3 14 1 28 -3 31 -5 3 -9 -2 -9
-10 0 -19 -12 -20 -28 -4 -10 10 -15 10 -21 0 -7 -11 -9 -10 -14 2 -9 23 -48
20 -54 -4 -6 -22 -11 -24 -33 -10 -10 6 -11 10 -2 10 6 0 12 5 12 10 0 13 -27
13 -35 -1 -4 -5 1 -19 11 -31 19 -20 19 -20 -6 -17 -19 3 -24 9 -22 27 2 13
-3 25 -13 28 -20 8 -27 1 -29 -28 -1 -14 -8 -24 -21 -27 -17 -3 -18 -1 -6 13
11 13 11 16 0 16 -11 0 -11 2 1 10 8 5 11 12 7 17 -4 4 -16 2 -27 -5 -12 -7
-21 -8 -25 -2 -15 24 -35 9 -35 -27z m266 6 c10 -17 -13 -36 -27 -22 -12 12
-4 33 11 33 5 0 12 -5 16 -11z"/>
<path d="M2830 240 c0 -5 5 -10 10 -10 6 0 10 -11 10 -25 0 -14 5 -25 10 -25
6 0 10 11 10 25 0 14 5 25 10 25 6 0 10 5 10 10 0 6 -13 10 -30 10 -16 0 -30
-4 -30 -10z"/>
<path d="M2900 213 c0 -24 3 -33 9 -25 6 10 10 10 20 -2 9 -11 19 -13 30 -7 9
5 31 6 49 4 31 -5 32 -4 32 31 0 45 -17 48 -22 4 l-4 -33 -13 28 c-18 34 -25
34 -40 1 -13 -29 -25 -25 -26 9 0 12 -7 23 -17 25 -15 3 -18 -4 -18 -35z"/>
<path d="M3090 233 c0 -13 -3 -14 -12 -5 -19 19 -28 14 -28 -18 0 -30 15 -41
23 -17 3 9 7 9 20 -2 15 -12 17 -10 17 23 0 20 -4 36 -10 36 -5 0 -10 -8 -10
-17z"/>
<path d="M3127 243 c-2 -5 -4 -20 -5 -35 -2 -24 2 -28 26 -28 19 0 23 3 13 9
-11 7 -11 10 0 16 9 6 8 10 -7 16 -17 7 -17 8 -1 8 9 1 17 6 17 11 0 12 -37
14 -43 3z"/>
<path d="M3180 216 c0 -29 3 -33 24 -33 19 0 24 5 24 21 -3 53 -48 64 -48 12z"/>
<path d="M410 231 c0 -6 -9 -11 -20 -11 -13 0 -20 -7 -20 -20 0 -25 9 -25 26
-2 13 16 13 16 14 0 0 -10 4 -18 9 -18 5 0 12 8 14 18 4 15 5 15 6 1 1 -23 27
-31 41 -13 16 18 -4 46 -26 37 -8 -3 -21 0 -29 7 -10 9 -15 9 -15 1z"/>
<path d="M910 220 c-14 -20 -37 -29 -25 -10 3 6 -1 10 -9 10 -9 0 -16 -9 -16
-20 0 -16 7 -20 33 -21 49 -2 72 2 75 12 2 6 10 5 18 -2 8 -6 14 -8 14 -4 0 4
7 2 15 -5 13 -10 19 -8 38 12 l23 25 -30 1 c-17 0 -34 -5 -38 -11 -5 -8 -8 -4
-8 11 0 12 -5 22 -11 22 -5 0 -8 -4 -5 -9 3 -5 -6 -11 -19 -14 -15 -2 -29 1
-33 9 -6 11 -11 10 -22 -6z m37 -26 c-3 -3 -12 -4 -19 -1 -8 3 -5 6 6 6 11 1
17 -2 13 -5z"/>
<path d="M1362 215 c-16 -34 -15 -38 4 -31 9 4 23 1 30 -5 10 -8 14 -8 14 -1
0 16 -22 62 -30 62 -4 0 -12 -11 -18 -25z"/>
<path d="M213 205 c-3 -9 2 -22 13 -30 28 -21 34 -18 34 15 0 23 -4 30 -20 30
-11 0 -23 -7 -27 -15z"/>
<path d="M270 201 c0 -20 4 -23 25 -19 14 3 28 2 31 -3 8 -14 34 2 34 22 0 15
-7 18 -35 17 -19 -1 -35 -6 -35 -12 0 -6 -5 -4 -10 4 -8 12 -10 10 -10 -9z"/>
<path d="M650 201 c0 -27 19 -36 37 -18 18 18 9 37 -18 37 -12 0 -19 -7 -19
-19z"/>
</g>
</svg>
