<?xml version="1.0" standalone="no"?>
<!DOCTYPE svg PUBLIC "-//W3C//DTD SVG 20010904//EN"
 "http://www.w3.org/TR/2001/REC-SVG-20010904/DTD/svg10.dtd">
<svg version="1.0" xmlns="http://www.w3.org/2000/svg"
 width="200.000000pt" height="320.000000pt" viewBox="0 0 200.000000 320.000000"
 preserveAspectRatio="xMidYMid meet">

<g transform="translate(0.000000,320.000000) scale(0.100000,-0.100000)"
fill="#000000" stroke="none">
<path d="M0 1600 l0 -1600 1000 0 1000 0 0 768 0 769 -25 11 c-27 12 -34 42
-10 42 7 0 19 -8 24 -17 8 -14 10 2 11 59 0 52 -4 78 -12 81 -10 4 -10 8 1 15
11 8 11 11 -4 13 -17 4 -18 5 -2 21 16 15 17 75 17 727 l0 711 -311 0 -311 0
3 -137 c3 -204 0 -265 -11 -258 -5 3 -10 15 -10 26 0 10 -4 19 -10 19 -5 0
-10 5 -10 11 0 5 6 7 13 3 10 -6 10 -4 0 7 -16 16 -18 149 -3 149 6 0 10 37
10 90 l0 90 -32 0 -31 0 6 -159 c5 -103 3 -162 -3 -166 -7 -4 -10 51 -10 159
0 96 -4 166 -9 166 -5 0 -12 -12 -14 -27 l-4 -28 -2 28 -1 27 -189 0 -188 0 5
-70 c3 -48 1 -70 -7 -70 -7 0 -11 24 -11 70 l0 70 -246 0 -247 0 6 -69 c4 -54
2 -72 -9 -82 -12 -10 -14 0 -14 70 l0 81 -180 0 -180 0 0 -1600z m442 1540 c2
-22 0 -40 -4 -40 -5 0 -8 18 -8 40 0 22 2 40 4 40 2 0 6 -18 8 -40z m825 -102
c-3 -7 -5 -2 -5 12 0 14 2 19 5 13 2 -7 2 -19 0 -25z m-1023 -24 c23 -9 20
-23 -4 -17 -29 8 -25 -16 5 -27 28 -11 31 -22 10 -40 -18 -15 -47 -10 -53 10
-4 13 -3 13 11 2 16 -14 37 -9 37 9 0 5 -6 9 -14 9 -7 0 -19 7 -26 15 -10 12
-10 18 0 30 14 17 13 17 34 9z m928 -17 c10 -16 -3 -37 -23 -37 -13 0 -19 -7
-19 -22 0 -33 -12 -14 -15 24 -1 18 2 38 7 45 10 12 38 6 50 -10z m98 -34 c0
-41 -3 -54 -10 -43 -17 26 -12 100 7 100 2 0 3 -26 3 -57z m400 24 c0 -7 -5
-18 -12 -25 -8 -8 -8 -15 2 -27 7 -8 9 -15 5 -15 -4 0 -14 8 -21 18 -12 15
-15 15 -24 2 -7 -11 -10 -5 -10 27 0 24 5 43 13 46 17 6 47 -11 47 -26z
m-1277 -19 c9 -23 15 -44 12 -46 -2 -3 -7 3 -11 12 -7 17 -44 23 -44 6 0 -5
-4 -10 -9 -10 -5 0 -2 18 7 40 9 22 20 40 23 40 3 0 13 -19 22 -42z m143 27
c4 -8 1 -22 -5 -29 -8 -10 -9 -16 -1 -21 5 -3 10 -11 10 -18 0 -6 -7 -4 -17 5
-15 16 -17 16 -29 0 -12 -15 -13 -11 -14 31 0 44 2 47 25 47 14 0 28 -7 31
-15z m130 -20 c18 -45 18 -48 -6 -33 -16 11 -22 9 -34 -7 -9 -11 -16 -17 -16
-13 0 11 32 88 37 88 2 0 11 -16 19 -35z m220 -35 c8 0 14 -4 14 -10 0 -5 -9
-10 -20 -10 -17 0 -20 6 -18 48 1 43 2 44 5 10 3 -25 9 -38 19 -38z m139 34
c19 -46 19 -47 -5 -32 -18 11 -23 10 -41 -12 l-19 -25 10 28 c23 61 30 77 35
77 2 0 12 -16 20 -36z m501 21 c4 -8 1 -22 -5 -29 -8 -10 -9 -16 -1 -21 5 -3
10 -12 10 -18 0 -7 -7 -4 -14 6 -16 21 -26 22 -26 1 0 -8 -4 -13 -8 -10 -7 4
-9 69 -3 84 4 9 43 -1 47 -13z m257 8 c-27 -5 -31 -32 -5 -34 16 -1 16 -2 0
-6 -22 -5 -24 -23 -3 -23 8 0 15 -5 15 -11 0 -6 -10 -9 -22 -7 -19 2 -24 10
-26 46 -3 42 -3 42 30 41 23 -1 26 -3 11 -6z m-854 -131 c11 -21 27 -45 37
-53 26 -22 65 -89 58 -100 -3 -6 -3 -34 0 -63 l7 -52 62 -13 c82 -16 180 -64
197 -96 15 -29 45 -33 58 -8 7 12 9 0 8 -40 -1 -51 0 -56 17 -51 16 5 18 1 15
-28 -2 -28 -7 -33 -28 -33 -23 0 -25 -5 -30 -50 -5 -43 -12 -56 -49 -93 -92
-91 -187 -134 -226 -102 -20 17 -19 23 7 35 12 6 24 16 26 24 3 10 -3 11 -27
6 -20 -4 -31 -3 -31 5 0 12 13 18 47 23 32 4 43 19 13 16 -58 -5 -80 1 -80 21
0 11 7 23 15 26 28 11 15 23 -22 21 -36 -2 -38 0 -41 31 -3 26 0 32 17 32 38
0 32 20 -9 26 -22 4 -43 11 -46 15 -10 16 -24 9 -24 -11 0 -11 5 -20 10 -20
23 0 7 -19 -28 -33 -21 -9 -46 -27 -56 -41 -21 -33 -36 -33 -36 0 0 17 -6 28
-20 31 -20 5 -28 23 -10 23 5 0 9 24 9 53 -1 45 -6 58 -35 90 -19 20 -38 37
-43 37 -5 0 -14 7 -21 15 -9 11 -9 26 1 69 14 62 36 88 92 106 37 12 47 25 25
33 -9 3 -8 10 6 26 19 21 19 21 -7 21 -32 0 -36 17 -6 22 15 2 23 11 25 31 1
15 -1 27 -6 27 -4 0 -6 9 -3 19 5 21 29 35 43 26 5 -3 11 -2 14 3 2 4 16 8 30
10 21 1 30 -6 45 -36z m-307 -24 c-7 -7 -12 -8 -12 -2 0 14 12 26 19 19 2 -3
-1 -11 -7 -17z m78 -2 c0 -15 -14 -35 -21 -30 -15 9 -10 34 6 34 8 0 15 -2 15
-4z m620 -39 c21 0 37 -14 54 -48 23 -47 3 -42 -55 13 -30 28 -45 48 -34 44
11 -5 27 -8 35 -9z m18 -86 c12 -11 22 -22 22 -26 0 -9 -80 48 -80 58 0 9 27
-6 58 -32z m577 19 c3 -5 1 -10 -4 -10 -6 0 -11 5 -11 10 0 6 2 10 4 10 3 0 8
-4 11 -10z m-655 -35 c20 -24 6 -28 -15 -5 -10 11 -13 20 -8 20 6 0 16 -7 23
-15z m-740 -29 c7 -9 19 -16 26 -16 22 0 16 -37 -6 -43 -15 -4 -20 0 -20 16 0
27 -28 57 -54 57 -17 0 -18 2 -7 9 16 11 40 1 61 -23z m725 4 c17 -19 17 -19
-19 -18 -43 1 -54 12 -29 27 25 14 27 14 48 -9z m165 -17 l22 -38 -31 29 c-31
30 -39 46 -22 46 5 0 19 -17 31 -37z m-937 -24 c6 -22 3 -28 -16 -34 -13 -4
-17 -8 -9 -12 6 -2 12 -12 12 -20 0 -15 57 -73 73 -73 4 0 7 -7 7 -15 0 -22
-46 -19 -85 5 -34 21 -56 54 -29 43 16 -6 18 5 5 26 -9 15 4 78 21 99 13 15
13 14 21 -19z m662 11 c-3 -5 3 -11 12 -14 15 -4 15 -5 -1 -3 -11 1 -20 10
-22 20 -1 9 2 15 7 11 5 -3 7 -9 4 -14z m-723 -27 c-3 -16 -7 -22 -10 -15 -4
13 4 42 11 42 2 0 2 -12 -1 -27z m146 -35 c17 -17 15 -46 -4 -65 -13 -14 -17
-14 -25 -2 -5 8 -9 29 -9 47 0 33 16 42 38 20z m1382 -88 c0 -5 -7 -10 -15
-10 -8 0 -15 5 -15 10 0 6 7 10 15 10 8 0 15 -4 15 -10z m-1472 -72 c7 -7 12
-21 12 -32 0 -12 11 -42 24 -68 12 -26 19 -45 15 -43 -11 7 -79 131 -79 144 0
14 13 14 28 -1z m10 -107 c17 -28 29 -51 27 -51 -7 0 -75 92 -75 102 0 17 16
0 48 -51z m1127 -62 c-9 -39 -14 -74 -11 -76 2 -3 9 19 15 49 7 29 16 60 22
68 8 12 9 9 5 -10 -3 -14 -11 -56 -16 -94 -6 -39 -12 -72 -14 -74 -3 -2 -10 7
-17 20 -20 35 -14 162 8 188 25 29 27 11 8 -71z m-1171 27 c94 -50 156 -104
177 -155 11 -27 2 -131 -11 -131 -5 0 -32 31 -60 70 -55 73 -103 110 -210 159
-36 17 -60 30 -55 31 6 0 15 10 20 23 8 17 6 25 -10 39 -19 15 -16 15 42 2 34
-8 83 -25 107 -38z m1286 39 c0 -8 -7 -15 -15 -15 -16 0 -20 12 -8 23 11 12
23 8 23 -8z m-1267 -20 c23 -32 17 -32 -13 0 -13 14 -19 25 -14 25 5 0 17 -12
27 -25z m1304 0 c-4 -8 -11 -15 -17 -15 -14 0 -13 27 3 33 16 6 21 1 14 -18z
m-817 -25 c0 -5 -17 -10 -37 -10 -28 0 -34 3 -23 10 20 13 60 13 60 0z m-369
-52 c15 -28 5 -21 -21 15 -15 20 -17 27 -6 18 9 -8 22 -23 27 -33z m344 7 c0
-5 -15 -11 -32 -13 -36 -4 -40 -12 -21 -42 17 -27 8 -32 -42 -24 -39 6 -41 8
-25 21 15 10 16 16 7 25 -21 21 25 49 73 46 22 -2 40 -7 40 -13z m80 -25 c3
-5 1 -10 -4 -10 -6 0 -11 5 -11 10 0 6 2 10 4 10 3 0 8 -4 11 -10z m329 -38
c-10 -49 15 -113 60 -158 31 -31 63 -49 134 -74 50 -18 92 -36 92 -40 0 -4
-13 -13 -29 -20 -17 -7 -48 -38 -73 -73 -24 -34 -61 -80 -83 -102 -21 -22 -40
-43 -41 -47 -1 -5 -2 -12 -3 -17 0 -5 -10 -12 -21 -16 -11 -3 -27 -19 -37 -35
-9 -16 -24 -28 -35 -27 -25 2 -23 14 5 28 12 7 26 18 30 25 4 8 14 14 21 14 8
0 16 7 19 15 9 21 -35 3 -92 -39 -46 -33 -139 -86 -176 -100 -16 -6 -14 -1 9
23 29 30 29 31 7 31 -38 0 -80 31 -86 64 -4 17 -9 40 -12 51 -5 17 -4 18 10 6
15 -11 18 -10 27 14 12 32 13 52 1 59 -9 6 7 106 19 119 11 13 79 26 85 17 3
-5 0 -21 -5 -35 -6 -15 -8 -36 -5 -46 9 -28 35 -24 35 5 0 14 11 38 25 54 34
41 45 74 45 140 0 66 22 137 52 170 27 28 29 28 22 -6z m-314 -6 c0 -3 -4 -8
-10 -11 -5 -3 -10 -1 -10 4 0 6 5 11 10 11 6 0 10 -2 10 -4z m688 -91 c-22
-39 -37 -41 -17 -3 10 19 27 37 36 38 1 0 -7 -16 -19 -35z m-38 -59 c0 -36 1
-38 14 -21 12 17 14 16 18 -12 5 -36 -18 -76 -31 -55 -15 25 -34 120 -27 138
11 28 26 -2 26 -50z m170 -66 c0 -5 -4 -10 -9 -10 -5 0 -11 -10 -14 -22 -4
-12 -9 -19 -13 -15 -4 4 -1 18 6 32 13 25 30 33 30 15z m23 -35 c-3 -8 -9 -15
-14 -15 -10 0 -12 24 -3 33 11 11 24 -3 17 -18z m86 -49 c-1 -23 -4 -52 -8
-65 -8 -29 -30 -40 -27 -14 1 13 -5 17 -18 15 -18 -3 -18 -2 -2 13 22 22 20
26 -9 19 -28 -7 -31 2 -10 30 8 11 15 31 15 44 0 17 4 23 15 18 8 -3 15 0 15
7 0 7 7 3 15 -7 8 -11 15 -38 14 -60z m-174 10 c81 -34 97 -128 97 -581 1
-348 -9 -480 -42 -587 -17 -55 -25 -68 -51 -78 -28 -12 -32 -11 -62 16 -18 16
-37 34 -42 40 -16 18 -75 -10 -75 -35 0 -29 17 -35 45 -17 14 9 25 12 25 7 0
-13 -34 -31 -58 -31 -11 0 -25 7 -32 15 -12 15 -8 45 16 103 3 6 1 12 -6 12
-6 0 -16 5 -23 10 -7 6 -79 55 -162 110 -105 70 -159 100 -179 100 l-30 0 34
-35 c45 -47 18 -47 -43 0 l-46 35 -410 0 c-267 0 -411 3 -411 10 0 7 140 10
401 10 l400 0 -26 23 c-23 20 -46 90 -46 141 0 28 6 29 50 6 23 -11 41 -16 41
-10 0 5 8 10 18 9 9 0 12 -3 5 -5 -8 -4 -7 -11 5 -25 9 -10 20 -19 24 -19 4 0
27 -13 51 -30 25 -16 75 -43 112 -60 64 -29 73 -30 202 -30 114 0 134 2 124
14 -8 9 -11 70 -10 187 1 183 2 174 -54 324 -22 58 -37 56 -37 -4 0 -27 -5
-53 -11 -57 -7 -4 -9 -22 -6 -45 3 -22 1 -39 -4 -39 -18 0 -62 82 -80 147 -23
83 -23 117 -1 165 24 53 142 195 172 207 37 14 86 13 125 -3z m92 -1 c-2 -5
-12 -10 -22 -10 -10 0 -20 5 -22 10 -1 6 8 10 22 10 14 0 24 -4 22 -10z m-444
-435 c-5 -20 -15 -25 -26 -13 -8 7 11 33 23 33 5 0 6 -9 3 -20z m-123 -36 c0
-8 -5 -12 -10 -9 -6 4 -8 11 -5 16 9 14 15 11 15 -7z m94 -10 c9 -24 7 -31 -4
-14 -9 13 -11 13 -19 1 -5 -8 -7 -21 -4 -30 4 -14 3 -14 -5 -1 -6 8 -8 18 -5
24 4 5 -1 7 -10 3 -10 -3 -17 -2 -17 4 0 5 10 14 23 19 31 12 34 12 41 -6z
m-112 -44 c1 -28 3 -31 13 -16 17 22 34 20 28 -3 -14 -53 -68 -26 -57 27 8 39
15 36 16 -8z m-32 -31 c0 -6 6 -17 14 -25 12 -12 19 -12 51 2 21 8 40 12 43 9
3 -3 -4 -8 -16 -11 -14 -4 -21 -13 -19 -26 1 -12 -5 -23 -13 -25 -13 -4 -13
-3 0 6 8 5 11 13 7 17 -3 4 -13 2 -21 -5 -11 -9 -15 -9 -18 1 -3 7 -13 13 -23
13 -13 0 -19 8 -19 28 -1 15 2 27 6 27 4 0 8 -5 8 -11z m115 -68 c-3 -6 -11
-11 -17 -11 -6 0 -6 6 2 15 14 17 26 13 15 -4z m-465 -131 c6 -11 2 -15 -14
-15 -20 0 -21 3 -12 28 6 15 13 22 15 15 2 -7 7 -20 11 -28z m-380 8 c0 -16
-3 -19 -11 -11 -6 6 -8 16 -5 22 11 17 16 13 16 -11z m58 -5 c10 -18 9 -20 -8
-16 -23 6 -22 5 -14 28 7 18 7 18 22 -12z m102 10 c0 -15 -2 -15 -9 -4 -7 11
-10 9 -14 -10 -4 -23 -4 -22 -6 4 -1 18 4 27 14 27 8 0 15 -8 15 -17z m58 -8
c9 -17 7 -20 -13 -20 -20 0 -21 3 -12 23 6 12 11 21 12 20 1 -2 7 -12 13 -23z
m39 -12 c-3 -10 -5 -4 -5 12 0 17 2 24 5 18 2 -7 2 -21 0 -30z m59 12 c0 -11
-8 -21 -16 -21 -9 0 -15 9 -15 21 0 12 6 21 16 21 11 0 16 -8 15 -21z m142 -1
c2 -12 -4 -24 -12 -27 -19 -7 -40 18 -32 39 8 22 40 13 44 -12z m244 17 c-11
-7 -11 -9 2 -14 9 -4 16 -11 16 -17 0 -5 -9 -2 -20 7 -25 21 -26 33 -2 33 13
0 14 -2 4 -9z m73 0 c3 -5 0 -13 -6 -17 -8 -4 -9 -3 -5 4 4 7 3 12 -3 12 -5 0
-12 -10 -14 -22 -4 -20 -4 -19 -6 5 -1 27 21 38 34 18z m41 -16 c0 -15 -6 -25
-14 -25 -9 0 -12 6 -8 16 3 9 6 20 6 25 0 5 4 9 8 9 4 0 8 -11 8 -25z m72 1
c-2 -22 -28 -27 -28 -4 0 5 5 6 10 3 6 -3 10 -2 10 4 0 5 -6 12 -12 14 -8 3
-6 6 4 6 13 1 17 -6 16 -23z m62 -7 c0 -4 -9 -9 -19 -12 -17 -4 -18 -2 -9 19
8 18 14 21 20 12 4 -7 8 -16 8 -19z m65 6 c0 -11 -8 -21 -17 -23 -14 -3 -18 3
-18 23 0 20 4 26 18 23 9 -2 17 -12 17 -23z m65 -10 c0 -6 -9 -11 -19 -11 -11
0 -18 3 -17 6 2 3 6 14 10 25 6 16 9 17 16 5 6 -8 10 -20 10 -25z m-1175 -5
c7 0 16 7 18 15 4 11 4 10 3 -2 -2 -22 -40 -24 -42 -3 0 9 1 10 3 3 3 -7 11
-13 18 -13z m69 14 c4 -9 4 -19 1 -22 -3 -3 -5 1 -5 9 0 11 -2 11 -10 -1 -8
-12 -10 -11 -10 8 0 26 15 29 24 6z m366 -298 c0 -20 -19 -31 -32 -18 -6 6 -7
15 -4 21 10 16 36 13 36 -3z m-398 -158 l5 -58 -31 1 c-17 0 -25 3 -18 6 6 2
12 20 12 39 0 33 -1 34 -38 34 -32 0 -41 -5 -56 -31 -15 -26 -16 -33 -5 -40
10 -6 6 -9 -14 -9 l-28 0 52 75 c55 79 89 115 50 52 l-23 -37 32 0 33 0 -6 47
c-3 27 0 57 6 68 10 17 12 12 18 -35 4 -30 9 -81 11 -112z m200 153 c-10 -6
-12 -25 -6 -80 3 -39 10 -71 13 -71 9 0 91 127 91 140 0 4 -6 11 -12 13 -7 3
2 6 21 6 l34 1 -20 -22 c-11 -13 -46 -63 -79 -112 l-59 -90 -12 88 c-6 48 -14
98 -17 112 -6 22 -3 24 26 24 22 0 28 -3 20 -9z m474 -42 c3 -6 1 -16 -5 -22
-9 -9 -14 -8 -21 3 -9 15 -4 30 10 30 5 0 12 -5 16 -11z m-31 -30 c9 -28 -12
-57 -51 -74 -40 -17 -38 -30 6 -38 44 -9 40 -51 -7 -76 -27 -14 -58 -14 -84
-1 -15 9 -17 15 -9 30 6 11 18 20 27 20 13 0 13 -3 2 -16 -10 -13 -10 -17 2
-25 21 -13 34 -11 60 10 l24 19 -28 11 c-16 6 -33 11 -38 11 -16 0 -9 38 9 45
16 6 16 7 0 16 -43 24 5 101 55 92 15 -3 29 -14 32 -24z m-265 2 c0 -10 -6
-34 -14 -52 -7 -19 -17 -45 -20 -59 l-7 -25 20 24 c23 25 27 21 11 -10 -14
-25 -50 -25 -50 0 0 10 7 38 15 61 19 55 19 84 0 50 -9 -16 -14 -19 -15 -9 0
20 20 39 42 39 11 0 18 -7 18 -19z m93 -3 c4 -12 2 -27 -2 -32 -5 -6 -14 -29
-21 -51 -26 -85 -49 -73 -25 13 18 64 16 107 -3 62 -6 -14 -11 -18 -11 -9 -2
38 53 54 62 17z m57 8 c0 -22 -18 -29 -35 -13 -16 17 -10 27 17 27 10 0 18 -6
18 -14z m257 -3 c5 -14 -43 -63 -60 -63 -6 0 -1 9 11 20 23 22 30 54 10 48
-33 -11 -67 -99 -49 -127 8 -12 13 -12 35 3 14 9 26 12 26 7 0 -14 -34 -31
-59 -31 -51 0 -47 82 6 135 28 27 73 32 80 8z m73 0 c0 -15 2 -15 19 1 27 24
57 17 53 -13 l-2 -24 21 26 c20 27 53 36 63 18 3 -5 -3 -35 -14 -66 -25 -72
-25 -87 0 -56 27 32 25 10 -2 -24 l-22 -28 22 5 c28 8 137 -93 130 -120 -4
-15 0 -17 23 -14 25 4 29 1 29 -19 -1 -21 -12 -59 -35 -111 -4 -11 -3 -18 3
-18 6 0 13 14 17 31 4 18 15 33 25 36 10 3 23 16 29 30 10 21 9 27 -6 38 -10
8 -15 16 -12 20 4 3 14 -1 23 -11 12 -12 20 -13 30 -5 8 7 35 9 76 4 l63 -6
-31 -26 c-17 -14 -37 -43 -45 -63 -29 -69 -91 -86 -116 -31 l-12 27 -12 -24
c-17 -33 -43 -48 -59 -32 -9 9 -8 22 5 59 9 27 17 51 17 55 0 15 -42 -27 -52
-52 l-11 -25 -9 34 c-12 45 -27 25 -29 -39 -1 -40 -2 -42 -8 -15 -6 28 -7 28
-13 8 -3 -13 -11 -23 -17 -23 -14 0 -14 7 4 66 8 27 15 55 15 62 0 18 -18 14
-23 -5 -4 -15 -5 -15 -6 -2 0 9 6 22 13 29 13 10 13 16 -1 46 -20 41 -32 42
-63 9 -13 -14 -26 -23 -28 -20 -3 3 4 15 15 28 27 28 46 94 30 100 -8 3 -5 24
12 71 13 37 20 70 16 74 -11 11 -48 -43 -68 -98 -10 -27 -22 -50 -27 -50 -14
0 -13 11 7 80 9 33 13 63 9 67 -12 12 -44 -37 -63 -94 -9 -29 -23 -53 -30 -53
-16 0 -16 8 0 56 22 63 28 94 18 94 -5 0 -13 -9 -16 -21 -4 -11 -9 -18 -12
-16 -2 3 0 15 7 26 13 25 50 28 50 4z m90 -160 c0 -2 -5 -13 -10 -24 -8 -14
-21 -19 -48 -19 l-37 1 35 28 c29 24 60 32 60 14z m-566 -165 c-39 -130 -36
-118 -26 -118 5 0 14 10 20 23 7 15 11 17 11 6 1 -9 -8 -24 -19 -34 -18 -16
-22 -17 -34 -4 -12 12 -9 29 16 113 23 76 27 101 17 106 -8 6 -4 10 12 13 13
2 27 5 31 6 3 0 -9 -50 -28 -111z m-59 81 c0 -7 -8 -15 -17 -17 -18 -3 -25 18
-11 32 10 10 28 1 28 -15z m175 7 c0 -8 -5 -18 -11 -22 -14 -8 -33 11 -25 25
10 16 36 13 36 -3z m700 -1 c0 -16 -27 -32 -37 -22 -3 4 -3 13 0 22 8 20 37
20 37 0z m-1126 -42 c3 -21 6 -57 6 -80 0 -24 3 -43 8 -43 4 1 30 37 57 80 45
72 53 80 80 79 17 -1 23 -3 13 -6 -18 -5 -65 -174 -53 -192 4 -7 -7 -11 -31
-11 -32 0 -35 2 -22 13 15 11 62 146 54 154 -2 2 -28 -35 -57 -81 -30 -47 -57
-86 -60 -86 -7 0 -19 87 -19 138 0 17 -4 32 -9 32 -5 0 -11 9 -14 20 -4 16 0
20 18 20 18 0 24 -7 29 -37z m-206 -25 c30 -30 -1 -123 -48 -148 -17 -9 -26
-8 -46 5 -27 17 -28 25 -14 74 18 65 76 101 108 69z m147 -64 c-15 -56 -16
-67 -4 -75 10 -6 3 -9 -21 -9 -27 1 -31 3 -19 10 9 5 25 41 35 80 10 38 20 67
22 65 3 -3 -3 -34 -13 -71z m290 66 c4 -6 -3 -35 -14 -66 -24 -64 -26 -87 -6
-60 13 17 15 17 15 3 0 -21 -32 -38 -50 -27 -12 7 -10 19 9 75 23 65 24 97 1
55 -6 -12 -14 -19 -17 -16 -8 8 27 46 43 46 7 0 16 -5 19 -10z m175 -10 c0
-10 -9 -42 -20 -70 -23 -58 -23 -60 -12 -60 5 0 14 10 20 23 7 15 11 17 11 6
1 -9 -8 -24 -19 -34 -16 -14 -23 -15 -34 -6 -13 11 -12 20 5 68 23 67 25 100
4 63 -9 -16 -14 -19 -15 -9 0 20 20 39 42 39 11 0 18 -7 18 -20z m140 5 c22
-26 6 -96 -30 -127 -36 -33 -51 -35 -75 -8 -23 25 -14 78 21 120 28 33 64 39
84 15z m92 -10 c-4 -19 -2 -19 20 3 28 25 56 29 64 7 3 -8 -3 -42 -14 -75 -20
-57 -15 -81 7 -42 6 9 11 12 11 5 0 -6 -7 -19 -16 -27 -38 -38 -53 -4 -30 68
23 74 21 84 -12 53 -15 -15 -36 -49 -46 -77 -10 -27 -24 -50 -31 -50 -10 0 -8
15 7 66 21 70 18 90 -8 58 -16 -20 -8 2 9 24 15 19 43 10 39 -13z m189 9 c-37
-26 -71 -134 -42 -134 18 0 51 53 57 91 6 37 28 68 40 56 4 -4 -17 -92 -33
-134 -9 -23 14 -14 25 10 7 15 11 17 11 6 1 -9 -8 -24 -20 -35 -20 -18 -21
-18 -34 0 -13 17 -15 17 -30 2 -20 -19 -27 -20 -43 -4 -37 37 22 157 78 158 9
0 6 -6 -9 -16z m164 -124 c3 -5 1 -10 -4 -10 -6 0 -11 5 -11 10 0 6 2 10 4 10
3 0 8 -4 11 -10z m129 -56 c15 -14 27 -27 24 -29 -6 -6 -68 36 -68 46 0 15 13
10 44 -17z"/>
<path d="M1130 2985 c0 -8 7 -15 15 -15 8 0 15 7 15 15 0 8 -7 15 -15 15 -8 0
-15 -7 -15 -15z"/>
<path d="M1620 2985 c0 -8 7 -15 15 -15 8 0 15 7 15 15 0 8 -7 15 -15 15 -8 0
-15 -7 -15 -15z"/>
<path d="M360 2970 c0 -5 5 -10 10 -10 6 0 10 5 10 10 0 6 -4 10 -10 10 -5 0
-10 -4 -10 -10z"/>
<path d="M496 2985 c-4 -12 -1 -16 11 -13 18 3 21 20 5 26 -5 1 -12 -4 -16
-13z"/>
<path d="M640 2970 c0 -5 5 -10 11 -10 5 0 7 5 4 10 -3 6 -8 10 -11 10 -2 0
-4 -4 -4 -10z"/>
<path d="M996 2975 c-3 -9 0 -15 9 -15 9 0 12 6 9 15 -4 8 -7 15 -9 15 -2 0
-5 -7 -9 -15z"/>
<path d="M1490 2985 c0 -8 7 -15 15 -15 8 0 15 7 15 15 0 8 -7 15 -15 15 -8 0
-15 -7 -15 -15z"/>
<path d="M830 2595 c0 -18 -16 -20 -23 -2 -3 7 -6 5 -6 -5 -1 -20 38 -60 50
-52 5 3 6 -1 3 -9 -3 -8 3 -20 12 -28 15 -12 19 -11 32 9 9 14 25 22 41 22 15
0 32 5 38 11 8 8 13 -3 18 -43 4 -34 15 -65 28 -81 12 -14 27 -33 32 -42 15
-24 72 -7 119 36 41 36 45 49 17 49 -22 0 -39 19 -19 21 7 1 -5 5 -27 9 -22 5
-56 6 -77 3 -29 -4 -38 -1 -46 13 -5 11 -6 28 -1 39 13 33 11 49 -4 36 -10 -8
-23 -6 -52 9 -48 25 -135 28 -135 5z m85 -35 c-3 -5 -12 -7 -20 -3 -21 7 -19
13 6 13 11 0 18 -4 14 -10z m221 -126 c-3 -9 -6 -18 -6 -20 0 -2 -4 -4 -9 -4
-5 0 -7 9 -4 20 3 11 10 20 15 20 6 0 7 -7 4 -16z"/>
<path d="M1609 1828 c-19 -20 -28 -37 -23 -47 3 -9 8 -24 11 -33 6 -21 33 -32
47 -18 13 13 15 130 3 130 -5 0 -22 -14 -38 -32z"/>
<path d="M1119 1031 c37 -34 63 -51 80 -51 23 0 21 3 -19 26 -25 14 -54 33
-65 43 -48 43 -45 28 4 -18z"/>
<path d="M1480 950 c8 -6 47 -20 85 -32 39 -11 87 -29 108 -40 41 -20 46 -15
20 22 -10 14 -18 32 -18 40 0 12 -20 15 -105 18 -74 1 -101 -1 -90 -8z"/>
<path d="M1605 709 c-9 -14 -2 -20 14 -10 8 6 9 11 3 15 -6 3 -14 1 -17 -5z"/>
<path d="M930 1125 c0 -8 7 -15 15 -15 8 0 15 7 15 15 0 8 -7 15 -15 15 -8 0
-15 -7 -15 -15z"/>
<path d="M1500 1125 c0 -8 5 -15 10 -15 6 0 10 7 10 15 0 8 -4 15 -10 15 -5 0
-10 -7 -10 -15z"/>
<path d="M1028 736 c-6 -14 -8 -32 -4 -42 6 -16 8 -16 26 1 24 22 27 65 5 65
-9 0 -20 -11 -27 -24z"/>
<path d="M1703 424 c-18 -29 -24 -108 -8 -111 6 -1 9 8 7 20 -2 13 9 40 23 60
14 21 25 42 25 47 0 20 -30 9 -47 -16z"/>
<path d="M1726 361 c-18 -35 -19 -41 -7 -41 10 0 34 61 27 68 -3 2 -12 -10
-20 -27z"/>
<path d="M250 408 c-29 -64 -26 -114 6 -101 18 7 35 37 45 81 16 72 -21 86
-51 20z"/>
<path d="M1000 408 c-32 -71 -21 -133 17 -95 18 17 43 106 36 125 -10 25 -34
11 -53 -30z"/>
</g>
</svg>
