<?xml version="1.0" standalone="no"?>
<!DOCTYPE svg PUBLIC "-//W3C//DTD SVG 20010904//EN"
 "http://www.w3.org/TR/2001/REC-SVG-20010904/DTD/svg10.dtd">
<svg version="1.0" xmlns="http://www.w3.org/2000/svg"
 width="260.000000pt" height="390.000000pt" viewBox="0 0 260.000000 390.000000"
 preserveAspectRatio="xMidYMid meet">

<g transform="translate(0.000000,390.000000) scale(0.100000,-0.100000)"
fill="#000000" stroke="none">
<path d="M0 1950 l0 -1950 1300 0 1300 0 0 1950 0 1950 -1300 0 -1300 0 0
-1950z m197 1738 c16 -22 9 -43 -15 -46 -24 -4 -38 18 -28 43 7 18 30 20 43 3z
m75 3 c-14 -9 -13 -32 3 -43 6 -4 0 -8 -12 -8 -17 0 -23 6 -23 23 0 28 7 37
29 37 12 0 13 -2 3 -9z m93 -1 c3 -6 -1 -7 -9 -4 -9 3 -16 1 -16 -5 0 -6 7
-11 15 -11 8 0 15 -7 15 -15 0 -10 -9 -15 -27 -14 l-28 1 25 7 25 7 -22 8
c-13 4 -23 11 -23 15 0 20 34 29 45 11z m87 -2 c-7 -7 -12 -20 -12 -31 0 -26
-17 -13 -22 18 -5 21 -2 25 20 25 20 0 23 -3 14 -12z m131 5 c-18 -7 -16 -23
2 -23 8 0 15 -7 15 -15 0 -10 -9 -15 -27 -14 -19 1 -22 3 -10 6 17 4 17 5 1
17 -20 15 -11 36 14 35 11 0 12 -3 5 -6z m85 0 c-21 -5 -24 -23 -5 -23 8 0 8
-3 -2 -9 -11 -7 -10 -10 5 -14 17 -4 17 -5 -2 -6 -14 -1 -24 6 -27 21 -8 28
-1 38 26 37 17 -1 18 -2 5 -6z m250 0 c-21 -5 -24 -23 -5 -23 8 0 8 -3 -2 -9
-11 -7 -10 -10 5 -14 16 -4 15 -5 -4 -6 -12 0 -25 6 -28 14 -10 24 4 45 28 44
17 -1 18 -2 6 -6z m99 -26 c1 -23 -1 -26 -11 -18 -8 6 -21 9 -30 5 -11 -4 -16
-1 -16 13 0 26 10 34 34 31 15 -2 21 -11 23 -31z m133 18 c18 -21 5 -45 -25
-45 -21 0 -25 5 -25 30 0 23 5 30 19 30 10 0 24 -7 31 -15z m95 -15 c0 -28
-27 -39 -50 -20 -21 18 -1 52 28 48 16 -2 22 -10 22 -28z m213 23 c-21 -5 -24
-23 -5 -23 8 0 8 -3 -2 -9 -11 -7 -10 -10 5 -14 16 -4 15 -5 -4 -6 -24 -1 -38
20 -28 44 3 8 16 14 28 14 17 -1 18 -2 6 -6z m80 -17 c10 16 13 17 21 4 9 -13
12 -12 25 5 21 27 20 11 0 -21 -15 -22 -18 -23 -29 -8 -11 15 -12 15 -19 -2
-7 -19 -8 -19 -22 0 -8 11 -14 27 -14 35 1 11 5 8 14 -8 13 -23 14 -23 24 -5z
m177 14 c19 16 19 1 0 -24 -15 -20 -15 -20 -30 0 -19 25 -19 40 0 24 12 -10
18 -10 30 0z m94 -4 c15 -18 4 -46 -19 -46 -28 0 -45 27 -30 45 16 19 34 19
49 1z m89 -21 c4 -28 -7 -32 -11 -3 -2 7 -7 13 -12 13 -5 0 -10 -6 -12 -13 -4
-29 -13 -24 -13 7 0 28 3 32 23 29 16 -2 23 -11 25 -33z m82 15 c-11 -7 -11
-11 -1 -24 9 -11 10 -16 2 -16 -6 0 -11 5 -11 11 0 6 -7 9 -15 5 -10 -4 -15 1
-15 14 0 12 5 17 14 14 8 -3 17 0 21 6 4 6 10 9 13 5 4 -3 0 -10 -8 -15z m132
-5 c-6 -34 -22 -42 -22 -11 0 13 -6 27 -12 29 -7 3 -1 6 13 6 23 1 26 -2 21
-24z m55 -22 c-3 -10 -5 -2 -5 17 0 19 2 27 5 18 2 -10 2 -26 0 -35z m94 30
l18 22 0 -35 c0 -28 -2 -31 -9 -15 -7 19 -8 19 -15 2 -6 -13 -11 -15 -21 -6
-7 6 -18 8 -24 4 -5 -3 -10 2 -10 13 0 29 14 36 29 13 l13 -21 19 23z m85 6
c-15 -9 -16 -13 -5 -20 12 -7 11 -9 -1 -10 -10 0 -8 -3 5 -9 19 -8 19 -9 -3
-9 -24 -1 -38 20 -28 44 3 8 16 15 28 15 21 -1 22 -1 4 -11z m84 1 c-13 -9
-13 -12 3 -21 22 -13 13 -29 -16 -28 -18 1 -19 2 -4 6 17 4 17 5 1 17 -19 15
-11 36 14 36 15 0 15 -2 2 -10z m-1682 -43 c12 -3 10 -5 -5 -6 -19 -1 -23 4
-22 27 1 22 2 23 6 5 2 -12 12 -24 21 -26z m88 2 c16 -6 14 -8 -8 -8 -24 -1
-28 3 -27 27 0 22 2 24 8 8 4 -11 16 -23 27 -27z m522 29 c10 -10 15 -10 22 2
8 12 10 9 10 -12 0 -31 -11 -36 -31 -12 -12 14 -14 14 -20 -3 -6 -14 -8 -13
-8 10 -1 29 8 34 27 15z m-1158 -173 c10 -12 10 -19 2 -27 -9 -9 -12 -8 -12 5
0 9 -4 17 -10 17 -15 0 -13 -10 12 -57 21 -40 22 -44 6 -59 -14 -14 -20 -15
-32 -4 -18 14 -21 40 -6 40 6 0 10 -7 10 -15 0 -8 5 -15 10 -15 16 0 12 18
-12 59 -19 33 -20 41 -9 55 17 20 25 20 41 1z m76 -1 c-3 -9 -6 -40 -6 -70 0
-30 -4 -54 -10 -54 -6 0 -10 27 -10 60 0 33 -4 60 -10 60 -5 0 -10 5 -10 10 0
6 12 10 26 10 20 0 25 -4 20 -16z m74 6 c0 -5 -4 -10 -10 -10 -14 0 -12 -37 3
-44 10 -5 10 -7 0 -12 -19 -8 -16 -41 5 -53 14 -9 13 -10 -10 -11 -28 0 -28 1
-28 63 0 35 3 67 7 70 10 11 33 8 33 -3z m78 -63 c-6 -37 -14 -67 -18 -67 -4
0 -11 21 -14 48 -4 26 -9 55 -12 65 -3 9 -1 17 5 17 6 0 11 -11 11 -25 0 -14
5 -25 10 -25 6 0 10 11 10 23 0 22 9 41 16 34 2 -2 -2 -33 -8 -70z m82 63 c0
-5 -4 -10 -9 -10 -5 0 -9 -22 -9 -50 0 -27 4 -50 9 -50 5 0 9 -4 9 -10 0 -5
-9 -10 -20 -10 -18 0 -20 7 -20 63 0 35 3 67 7 70 10 11 33 8 33 -3z m88 -97
c-3 -27 -6 -33 -11 -20 -4 9 -10 25 -14 35 -5 13 -8 9 -11 -15 -6 -59 -21 -34
-19 32 1 38 6 64 12 62 5 -2 12 -12 13 -23 6 -31 24 -43 22 -14 -1 14 -1 32 1
40 4 26 10 -58 7 -97z m197 97 c3 -5 -1 -10 -9 -10 -19 0 -21 -36 -3 -44 10
-5 10 -7 0 -12 -18 -8 -16 -43 2 -50 22 -9 9 -23 -15 -17 -17 5 -20 14 -20 67
0 35 3 66 7 69 10 10 31 8 38 -3z m58 -67 c4 -3 7 7 7 23 0 16 5 36 11 44 7
11 9 -1 4 -44 -8 -67 -13 -86 -25 -86 -11 0 -26 107 -20 135 1 6 6 -7 10 -28
4 -20 10 -40 13 -44z m152 67 c3 -5 1 -10 -4 -10 -7 0 -11 -24 -11 -60 0 -33
-4 -60 -10 -60 -5 0 -10 24 -10 54 0 30 -3 61 -6 70 -4 11 0 16 14 16 12 0 24
-4 27 -10z m73 -2 c15 -15 16 -38 2 -38 -5 0 -10 7 -10 15 0 8 -4 15 -10 15
-16 0 -12 -18 13 -61 22 -39 22 -40 3 -54 -14 -11 -23 -12 -33 -4 -15 13 -17
39 -3 39 6 0 10 -7 10 -15 0 -8 5 -15 10 -15 15 0 13 10 -12 57 -19 35 -20 44
-9 57 16 19 23 20 39 4z m163 -40 c-6 -17 -11 -44 -11 -59 0 -47 -17 -33 -23
19 -2 26 -8 55 -12 65 -4 9 -3 17 3 17 5 0 13 -10 17 -22 5 -17 8 -19 11 -8
15 44 16 45 21 32 3 -7 0 -27 -6 -44z m125 -3 c-20 -30 -11 -56 10 -28 16 22
19 1 4 -27 -8 -16 -8 -18 5 -14 8 4 15 1 15 -5 0 -6 -3 -11 -7 -12 -5 0 -18
-2 -31 -3 -34 -4 -48 19 -34 56 6 16 8 36 5 44 -3 8 1 21 8 30 11 13 14 13 27
0 13 -13 13 -18 -2 -41z m143 41 c7 -8 11 -37 9 -68 -3 -46 -6 -53 -25 -56
-22 -3 -23 0 -23 67 0 54 3 71 14 71 7 0 19 -6 25 -14z m86 -71 c6 -55 5 -58
-9 -41 -14 17 -16 17 -22 3 -13 -35 -21 -15 -12 31 19 96 19 98 28 82 4 -8 11
-42 15 -75z m220 75 c3 -5 -1 -10 -9 -10 -19 0 -21 -36 -3 -44 10 -5 10 -7 0
-12 -19 -8 -16 -35 5 -50 15 -12 14 -13 -10 -14 -28 0 -28 1 -28 63 0 35 3 67
7 70 10 10 31 8 38 -3z m55 -60 c0 -37 4 -60 13 -63 6 -3 2 -6 -10 -6 -22 -1
-23 3 -23 70 0 44 4 68 10 64 6 -3 10 -33 10 -65z m136 55 c3 -8 -1 -35 -9
-60 -14 -41 -14 -46 1 -55 14 -8 12 -9 -10 -10 -16 0 -28 1 -28 3 0 1 7 24 15
51 19 61 19 66 -1 66 -8 0 -12 5 -9 10 9 15 35 12 41 -5z m118 9 c12 -5 16
-21 16 -70 0 -62 -1 -64 -25 -64 -24 0 -25 2 -25 63 0 74 4 82 34 71z m83
-121 c15 -12 15 -13 -5 -13 -21 0 -22 4 -20 73 l2 72 3 -60 c3 -41 9 -64 20
-72z m88 45 c4 -39 3 -58 -4 -58 -6 0 -11 8 -11 18 -1 15 -2 15 -16 -3 -15
-19 -16 -15 -9 45 11 104 27 103 40 -2z m75 73 c0 -6 -4 -12 -9 -15 -4 -3 -7
-30 -5 -61 2 -31 -1 -55 -6 -55 -6 0 -10 27 -10 60 0 33 -4 60 -10 60 -5 0
-10 5 -10 10 0 6 11 10 25 10 14 0 25 -4 25 -9z m80 -1 c0 -5 -4 -10 -10 -10
-6 0 -10 -27 -10 -60 0 -35 -4 -60 -11 -60 -6 0 -9 21 -8 53 1 28 -2 60 -6 70
-6 14 -2 17 19 17 14 0 26 -4 26 -10z m-1750 -59 c0 -38 4 -61 13 -64 6 -3 2
-6 -10 -6 -22 -1 -23 3 -23 64 0 37 4 65 10 65 6 0 10 -26 10 -59z m230 -6 c0
-37 -4 -65 -10 -65 -6 0 -10 28 -10 65 0 37 4 65 10 65 6 0 10 -28 10 -65z
m201 43 l0 -23 11 23 c13 26 34 31 22 5 -9 -23 -9 -51 0 -85 5 -17 4 -28 -2
-28 -5 0 -13 12 -18 28 l-7 27 -7 -30 c-5 -23 -8 -15 -11 38 -2 37 -1 67 4 67
4 0 7 -10 8 -22z m527 -10 l10 -33 1 33 c2 62 21 32 21 -33 0 -68 -14 -87 -25
-35 -4 17 -11 30 -16 30 -4 0 -6 -13 -2 -30 3 -19 1 -30 -6 -30 -7 0 -11 24
-11 65 0 71 11 84 28 33z m82 -33 c0 -37 -4 -65 -10 -65 -6 0 -10 28 -10 65 0
37 4 65 10 65 6 0 10 -28 10 -65z m320 0 c0 -37 -4 -65 -10 -65 -6 0 -10 28
-10 65 0 37 4 65 10 65 6 0 10 -28 10 -65z m-1702 -221 c40 -26 52 -72 52
-199 l0 -115 -45 0 -44 0 -3 108 c-3 107 -3 107 -28 107 l-25 0 -3 -346 c-2
-299 0 -348 13 -359 12 -10 18 -10 30 0 10 9 15 39 17 113 l3 102 40 0 40 0 3
-105 c2 -58 -2 -122 -8 -142 -24 -84 -125 -117 -190 -62 -60 51 -60 49 -60
444 0 344 1 363 21 401 35 70 123 95 187 53z m345 -6 c56 -40 57 -44 57 -443
0 -322 -2 -371 -17 -402 -34 -73 -133 -97 -193 -47 -60 51 -60 49 -60 444 0
336 1 363 19 399 23 44 40 59 78 71 36 11 81 3 116 -22z m846 4 c14 -10 34
-31 45 -46 20 -26 21 -42 24 -384 3 -389 1 -412 -54 -463 -21 -20 -36 -24 -86
-24 -57 0 -62 2 -93 38 -18 21 -35 52 -39 69 -10 50 -7 690 4 727 26 93 129
135 199 83z m851 -1 c36 -25 49 -73 49 -178 l1 -93 -45 0 -45 0 0 79 c0 83
-14 116 -45 104 -47 -17 -26 -148 54 -336 44 -102 91 -268 91 -321 0 -50 -19
-105 -48 -138 -32 -35 -102 -49 -149 -29 -53 22 -75 70 -81 176 l-5 95 52 0
51 0 0 -79 c0 -86 15 -115 48 -94 43 27 23 152 -58 353 -86 215 -105 331 -65
410 38 74 128 98 195 51z m-1404 7 c7 -11 24 -154 43 -363 20 -214 16 -224 51
139 11 120 23 222 26 227 2 5 33 7 67 6 l62 -2 3 -462 2 -463 -50 0 -50 0 -1
333 c-2 368 -4 364 -42 -68 l-23 -260 -39 0 -40 0 -12 145 c-7 80 -19 219 -26
310 l-14 165 -2 -312 -1 -313 -45 0 -45 0 0 465 0 465 66 -2 c36 -2 68 -6 70
-10z m1061 -118 c6 -69 23 -255 37 -415 14 -159 29 -311 32 -337 l6 -48 -55 0
-55 0 -7 85 c-7 84 -8 85 -35 85 -24 0 -28 -5 -34 -37 -3 -21 -6 -59 -6 -85
l0 -48 -50 0 c-27 0 -50 1 -50 3 0 2 11 125 25 273 14 148 30 321 35 384 20
226 22 245 25 256 2 6 28 10 61 10 l59 -1 12 -125z m-1035 -917 c23 -24 23
-27 23 -269 l0 -244 -27 -26 c-29 -29 -77 -35 -104 -13 -39 33 -44 62 -44 281
0 183 3 218 18 248 30 61 88 71 134 23z m868 -1 c16 -20 20 -40 20 -104 l0
-79 -27 3 c-27 3 -28 5 -31 71 -2 58 -6 68 -20 65 -15 -3 -17 -24 -17 -223 0
-201 1 -220 18 -223 15 -3 17 5 17 67 l0 71 30 0 30 0 0 -79 c0 -65 -4 -83
-21 -105 -30 -38 -92 -34 -123 7 -20 27 -21 43 -24 247 -3 248 3 280 59 304
40 17 64 11 89 -22z m-1617 17 c43 -19 47 -46 47 -285 0 -287 -3 -294 -122
-294 l-48 0 0 295 0 295 50 0 c27 0 60 -5 73 -11z m242 -29 c0 -33 -2 -35 -35
-35 l-35 0 -3 -87 -3 -88 26 0 c22 0 25 -4 25 -35 0 -31 -3 -35 -25 -35 l-26
0 3 -97 c3 -97 3 -98 28 -100 14 0 31 -1 38 -2 9 -1 12 -12 10 -33 l-3 -33
-67 -3 -68 -3 0 296 0 296 68 -3 67 -3 0 -35z m153 -80 c7 -63 16 -140 19
-170 6 -51 8 -45 19 73 6 70 15 148 19 172 6 45 7 45 46 45 l39 0 0 -295 0
-295 -30 0 -30 0 -1 188 c-2 201 -2 199 -30 -75 -11 -107 -13 -113 -34 -113
-25 0 -25 3 -41 214 -12 165 -23 147 -21 -34 l2 -175 -27 -3 -28 -3 0 296 0
296 43 -3 42 -3 13 -115z m579 93 c13 -20 18 -47 18 -103 0 -74 0 -75 -27 -78
-27 -3 -27 -3 -30 65 -2 52 -6 68 -18 68 -13 0 -15 -31 -15 -220 0 -189 2
-220 15 -220 12 0 16 15 18 68 l3 67 30 0 31 0 -3 -85 c-3 -71 -8 -88 -26
-106 -32 -33 -81 -28 -116 11 l-28 31 3 239 c3 237 3 239 27 264 35 37 94 36
118 -1z m210 3 c27 -23 28 -29 31 -125 3 -81 1 -107 -12 -126 -15 -22 -15 -28
-2 -47 10 -16 15 -58 17 -143 3 -120 3 -120 -21 -123 -40 -6 -50 21 -50 140 0
89 -3 108 -15 108 -13 0 -15 -21 -15 -125 l0 -125 -35 0 -35 0 0 295 0 295 54
0 c44 0 61 -5 83 -24z m197 -18 c6 -40 43 -427 48 -508 3 -34 2 -35 -32 -35
l-35 0 -3 53 c-3 43 -6 52 -22 52 -16 0 -19 -9 -22 -52 -3 -51 -4 -53 -33 -53
-20 0 -30 5 -29 15 4 65 47 548 50 558 2 6 19 12 38 12 32 0 34 -2 40 -42z
m376 -253 l0 -295 -35 0 -35 0 0 295 0 295 35 0 35 0 0 -295z m174 263 c7 -40
35 -351 43 -470 l6 -88 -30 0 c-35 0 -43 13 -43 71 0 32 -3 39 -20 39 -17 0
-20 -7 -20 -42 0 -24 -4 -49 -9 -56 -11 -18 -56 -11 -55 8 6 94 47 548 50 558
2 6 19 12 38 12 32 0 36 -3 40 -32z m236 0 c14 -23 20 -51 20 -90 0 -58 0 -58
-30 -58 -30 0 -30 1 -30 55 0 48 -2 55 -20 55 -35 0 -26 -73 26 -206 81 -207
69 -314 -34 -314 -56 0 -75 26 -80 106 l-4 64 31 0 c31 0 31 -1 31 -49 0 -53
12 -70 35 -51 22 18 8 88 -41 216 -48 123 -60 176 -50 229 10 51 37 75 86 75
35 0 43 -5 60 -32z m-1592 -658 c60 -37 62 -50 62 -455 0 -379 -1 -386 -43
-433 -57 -63 -170 -41 -207 40 -18 40 -20 68 -20 395 0 365 2 387 43 432 42
45 111 54 165 21z m-545 -132 c9 -79 23 -206 29 -283 l12 -140 8 85 c18 193
39 407 44 443 l6 37 69 0 69 0 -2 -462 -3 -463 -50 0 -50 0 -2 319 c-1 175 -4
321 -7 324 -3 3 -6 -26 -6 -64 0 -78 -47 -560 -55 -575 -7 -11 -45 -12 -61 -1
-10 6 -50 420 -56 582 -2 30 -5 -89 -8 -265 l-5 -320 -40 3 c-22 2 -41 5 -42
6 -2 2 -5 852 -3 909 0 4 31 7 68 7 l68 0 17 -142z m916 127 c51 -26 61 -65
61 -243 0 -155 -1 -161 -24 -189 l-24 -28 23 -27 c21 -24 23 -38 28 -204 3
-99 7 -187 9 -197 3 -16 -5 -19 -46 -21 -64 -3 -66 5 -66 207 0 89 -4 168 -9
175 -5 8 -16 12 -25 10 -16 -3 -18 -23 -19 -197 l-2 -194 -52 -2 -53 -2 0 464
0 463 85 0 c56 0 96 -5 114 -15z m385 -14 c36 -34 48 -104 44 -258 -3 -119 -5
-134 -26 -163 l-24 -32 23 -24 c25 -27 26 -31 32 -284 l3 -135 -43 0 c-24 1
-49 7 -56 14 -8 8 -14 68 -17 194 -5 179 -5 182 -27 185 l-23 3 -2 -197 -3
-198 -50 -1 -50 0 -3 463 -2 464 99 -4 c88 -3 102 -6 125 -27z m366 -26 l0
-54 -57 -3 -58 -3 -3 -137 -3 -138 41 0 40 0 0 -60 0 -59 -37 2 -38 2 -3 -152
-3 -153 61 0 61 0 -3 -56 -3 -56 -108 -2 -107 -1 0 463 0 462 110 0 110 0 0
-55z m234 33 c11 -51 46 -399 46 -456 0 -107 17 -75 24 46 4 64 15 187 24 272
l17 155 68 3 67 3 0 -463 0 -464 -47 1 -48 1 -5 315 -5 314 -13 -140 c-7 -77
-20 -217 -29 -312 l-16 -171 -31 -5 c-17 -3 -35 -2 -39 3 -7 6 -18 119 -54
545 -7 84 -9 48 -13 -225 l-5 -325 -40 0 -40 0 -3 463 -2 462 70 0 c64 0 70
-2 74 -22z m-1027 -1070 c-3 -7 -5 -2 -5 12 0 14 2 19 5 13 2 -7 2 -19 0 -25z
m643 0 c0 -12 -6 -9 -26 13 -19 22 -19 22 4 8 12 -8 22 -17 22 -21z m561 9
c-10 -9 -11 -8 -5 6 3 10 9 15 12 12 3 -3 0 -11 -7 -18z m-1324 -9 c-3 -8 -6
-5 -6 6 -1 11 2 17 5 13 3 -3 4 -12 1 -19z m77 13 c4 -5 -3 -7 -14 -4 -23 6
-26 13 -6 13 8 0 17 -4 20 -9z m103 -13 c-3 -8 -6 -5 -6 6 -1 11 2 17 5 13 3
-3 4 -12 1 -19z m103 0 c0 -6 -6 -5 -15 2 -8 7 -15 14 -15 16 0 2 7 1 15 -2 8
-4 15 -11 15 -16z m191 -1 c-10 -9 -11 -8 -5 6 3 10 9 15 12 12 3 -3 0 -11 -7
-18z m99 19 c0 -3 -4 -8 -10 -11 -5 -3 -10 -1 -10 4 0 6 5 11 10 11 6 0 10 -2
10 -4z m37 -18 c-3 -8 -6 -5 -6 6 -1 11 2 17 5 13 3 -3 4 -12 1 -19z m343 0
c0 -6 -6 -5 -15 2 -8 7 -15 14 -15 16 0 2 7 1 15 -2 8 -4 15 -11 15 -16z m185
12 c-3 -5 -12 -10 -18 -10 -7 0 -6 4 3 10 19 12 23 12 15 0z m260 -9 c-8 -14
-25 -14 -25 0 0 5 5 7 10 4 6 -3 10 -1 10 6 0 7 3 10 6 6 3 -3 3 -10 -1 -16z
m-1039 -9 c1 -7 0 -8 -3 -2 -2 5 -9 8 -14 4 -5 -3 -9 0 -9 6 0 15 23 7 26 -8z
m164 8 c0 -5 -4 -10 -10 -10 -5 0 -10 5 -10 10 0 6 5 10 10 10 6 0 10 -4 10
-10z m480 0 c0 -5 -5 -10 -11 -10 -5 0 -7 5 -4 10 3 6 8 10 11 10 2 0 4 -4 4
-10z m70 0 c0 -5 -2 -10 -4 -10 -3 0 -8 5 -11 10 -3 6 -1 10 4 10 6 0 11 -4
11 -10z m110 0 c0 -5 -7 -10 -16 -10 -8 0 -12 5 -9 10 3 6 10 10 16 10 5 0 9
-4 9 -10z m110 6 c0 -11 -19 -15 -25 -6 -3 5 1 10 9 10 9 0 16 -2 16 -4z
m-980 -91 c0 -8 -4 -15 -10 -15 -5 0 -7 7 -4 15 4 8 8 15 10 15 2 0 4 -7 4
-15z m217 -7 c-3 -8 -6 -5 -6 6 -1 11 2 17 5 13 3 -3 4 -12 1 -19z m183 -1 c0
-8 -4 -7 -12 1 -9 9 -15 9 -27 -1 -14 -10 -14 -10 -3 5 14 17 42 14 42 -5z
m486 11 c4 -6 3 -8 -4 -4 -5 3 -12 0 -15 -6 -2 -7 -8 -9 -13 -5 -5 4 -2 12 6
17 19 12 17 12 26 -2z m-946 -8 c0 -5 -4 -10 -10 -10 -5 0 -10 5 -10 10 0 6 5
10 10 10 6 0 10 -4 10 -10z m130 0 c0 -5 -5 -10 -11 -10 -5 0 -7 5 -4 10 3 6
8 10 11 10 2 0 4 -4 4 -10z m115 0 c3 -5 1 -10 -4 -10 -6 0 -11 5 -11 10 0 6
2 10 4 10 3 0 8 -4 11 -10z m80 0 c3 -5 -1 -10 -9 -10 -9 0 -16 5 -16 10 0 6
4 10 9 10 6 0 13 -4 16 -10z m65 0 c0 -5 -5 -10 -11 -10 -5 0 -7 5 -4 10 3 6
8 10 11 10 2 0 4 -4 4 -10z m120 0 c0 -5 -5 -10 -11 -10 -5 0 -7 5 -4 10 3 6
8 10 11 10 2 0 4 -4 4 -10z m60 -2 c0 -11 -28 -10 -35 1 -3 6 4 9 15 8 11 -1
20 -5 20 -9z m60 2 c0 -5 -2 -10 -4 -10 -3 0 -8 5 -11 10 -3 6 -1 10 4 10 6 0
11 -4 11 -10z m100 6 c0 -3 -4 -8 -10 -11 -5 -3 -10 -1 -10 4 0 6 5 11 10 11
6 0 10 -2 10 -4z m130 -8 c0 -4 -7 -8 -15 -8 -8 0 -15 4 -15 8 0 5 7 9 15 9 8
0 15 -4 15 -9z m190 2 c0 -5 -4 -10 -10 -10 -5 0 -10 5 -10 10 0 6 5 10 10 10
6 0 10 -4 10 -10z m-1213 -92 c-3 -7 -5 -2 -5 12 0 14 2 19 5 13 2 -7 2 -19 0
-25z m225 -10 c-6 -6 -12 -5 -17 3 -5 8 -4 10 3 5 8 -5 12 1 13 16 1 18 2 19
6 4 3 -10 0 -23 -5 -28z m367 26 c7 5 9 1 5 -8 -5 -14 -24 -23 -24 -12 0 2 -3
13 -6 23 -4 14 -4 15 4 4 5 -7 15 -11 21 -7z m-282 -16 c-3 -8 -6 -5 -6 6 -1
11 2 17 5 13 3 -3 4 -12 1 -19z m209 2 c0 -12 -4 -16 -9 -11 -5 5 -6 14 -3 20
10 15 12 14 12 -9z m437 5 c-3 -9 -8 -14 -10 -11 -3 3 -2 9 2 15 9 16 15 13 8
-4z m282 -5 c10 -11 14 -20 9 -20 -5 0 -15 9 -22 20 -7 11 -11 20 -9 20 2 0
12 -9 22 -20z m52 -2 c-3 -8 -6 -5 -6 6 -1 11 2 17 5 13 3 -3 4 -12 1 -19z
m-1137 2 c0 -5 -8 -10 -17 -10 -15 0 -16 2 -3 10 19 12 20 12 20 0z m185 0 c3
-5 1 -10 -4 -10 -6 0 -11 5 -11 10 0 6 2 10 4 10 3 0 8 -4 11 -10z m50 0 c3
-5 2 -10 -4 -10 -5 0 -13 5 -16 10 -3 6 -2 10 4 10 5 0 13 -4 16 -10z m335 0
c0 -5 -4 -10 -10 -10 -5 0 -10 5 -10 10 0 6 5 10 10 10 6 0 10 -4 10 -10z
m120 0 c0 -5 -4 -10 -10 -10 -5 0 -10 5 -10 10 0 6 5 10 10 10 6 0 10 -4 10
-10z m220 0 c0 -5 -4 -10 -10 -10 -5 0 -10 5 -10 10 0 6 5 10 10 10 6 0 10 -4
10 -10z m145 0 c3 -5 1 -10 -4 -10 -6 0 -11 5 -11 10 0 6 2 10 4 10 3 0 8 -4
11 -10z m-178 -92 c-3 -7 -5 -2 -5 12 0 14 2 19 5 13 2 -7 2 -19 0 -25z m227
-8 c-6 -5 -24 21 -24 34 0 6 6 1 14 -10 8 -10 12 -21 10 -24z m-67 8 c-3 -8
-6 -5 -6 6 -1 11 2 17 5 13 3 -3 4 -12 1 -19z m123 1 c0 -14 -17 -10 -23 5 -4
10 -1 13 9 9 7 -3 14 -9 14 -14z m-2346 0 c-5 -9 -8 -79 -4 -114 0 -5 7 -2 14
8 9 12 11 29 6 57 -8 44 -5 47 24 25 19 -14 19 -15 1 -35 -13 -14 -14 -20 -5
-20 11 0 11 -3 2 -12 -21 -21 -13 -32 8 -13 16 14 17 20 8 26 -10 6 -10 11 -1
20 10 10 14 9 19 -5 6 -17 -39 -76 -58 -76 -12 0 -78 53 -78 63 0 4 10 2 23
-4 22 -12 22 -12 3 9 -18 21 -18 22 5 51 23 28 48 44 33 20z m1841 2 c3 -5 1
-12 -5 -16 -5 -3 -10 1 -10 9 0 18 6 21 15 7z m43 -16 c-3 -3 -9 2 -12 12 -6
14 -5 15 5 6 7 -7 10 -15 7 -18z m26 9 c3 -8 2 -12 -4 -9 -6 3 -10 10 -10 16
0 14 7 11 14 -7z m37 2 c5 3 9 0 9 -6 0 -15 -23 -7 -26 8 -1 7 0 8 3 2 2 -5 9
-8 14 -4z m99 5 c0 -6 -4 -13 -10 -16 -5 -3 -10 1 -10 9 0 9 5 16 10 16 6 0
10 -4 10 -9z m56 -18 c-10 -10 -19 5 -10 18 6 11 8 11 12 0 2 -7 1 -15 -2 -18z
m74 10 c0 -7 -4 -13 -9 -13 -5 0 -13 6 -19 13 -8 10 -6 13 9 13 10 0 19 -6 19
-13z m-2034 -45 c-3 -7 -9 -21 -12 -30 -4 -10 -11 -18 -16 -18 -6 0 -7 8 -3
18 4 9 8 23 8 30 0 6 7 12 15 12 7 0 11 -6 8 -12z m62 -13 c16 -34 15 -40 -3
-25 -8 6 -20 8 -26 4 -9 -5 -10 -2 -6 10 4 10 7 22 7 27 0 18 17 8 28 -16z
m46 13 c5 -10 7 -10 12 0 11 23 24 12 24 -20 -1 -30 -2 -31 -14 -15 -16 21
-26 22 -26 1 0 -8 -4 -13 -9 -10 -11 7 -11 56 -1 56 5 0 11 -6 14 -12z m95
-14 c12 -28 6 -48 -8 -25 -5 7 -14 10 -20 7 -12 -8 -14 4 -5 28 9 23 19 20 33
-10z m59 9 c-1 -10 2 -24 6 -32 7 -11 5 -13 -8 -8 -10 4 -22 7 -27 7 -5 0 -9
11 -9 25 0 19 5 25 21 25 14 0 19 -6 17 -17z"/>
<path d="M170 3670 c0 -11 4 -20 8 -20 4 0 8 9 9 20 1 11 -2 20 -8 20 -5 0 -9
-9 -9 -20z"/>
<path d="M985 3680 c-3 -5 -1 -10 4 -10 6 0 11 5 11 10 0 6 -2 10 -4 10 -3 0
-8 -4 -11 -10z"/>
<path d="M1115 3680 c-7 -12 2 -30 16 -30 12 0 12 27 0 35 -5 3 -12 1 -16 -5z"/>
<path d="M1204 3679 c-10 -17 13 -36 27 -22 12 12 4 33 -11 33 -5 0 -12 -5
-16 -11z"/>
<path d="M1776 3683 c-12 -12 -6 -33 9 -33 8 0 15 6 15 14 0 17 -14 28 -24 19z"/>
<path d="M1351 3484 c0 -11 3 -14 6 -6 3 7 2 16 -1 19 -3 4 -6 -2 -5 -13z"/>
<path d="M1330 3411 c0 -6 5 -13 10 -16 6 -3 10 1 10 9 0 9 -4 16 -10 16 -5 0
-10 -4 -10 -9z"/>
<path d="M1487 3493 c-11 -10 -8 -93 3 -93 6 0 10 23 10 50 0 51 -1 55 -13 43z"/>
<path d="M1571 3434 c0 -11 3 -14 6 -6 3 7 2 16 -1 19 -3 4 -6 -2 -5 -13z"/>
<path d="M2110 3481 c0 -12 5 -21 10 -21 6 0 10 6 10 14 0 8 -4 18 -10 21 -5
3 -10 -3 -10 -14z"/>
<path d="M2110 3420 c0 -11 5 -20 10 -20 6 0 10 9 10 20 0 11 -4 20 -10 20 -5
0 -10 -9 -10 -20z"/>
<path d="M607 3124 c-4 -4 -7 -164 -7 -355 0 -319 1 -347 17 -353 10 -4 22 -1
28 7 7 9 8 131 5 358 -4 300 -7 344 -20 347 -9 1 -19 0 -23 -4z"/>
<path d="M1462 3118 c-9 -9 -12 -100 -12 -349 0 -287 2 -338 15 -349 12 -10
18 -10 30 0 13 11 15 62 15 345 0 184 -3 340 -6 349 -7 19 -25 21 -42 4z"/>
<path d="M1982 2927 c-14 -152 -22 -312 -18 -323 3 -7 12 -11 21 -8 12 5 15
25 14 108 -1 96 -14 261 -17 223z"/>
<path d="M947 2144 c-11 -11 -8 -417 3 -434 24 -38 30 11 28 220 -3 201 -8
237 -31 214z"/>
<path d="M215 2138 c-3 -7 -4 -108 -3 -223 3 -179 5 -210 18 -210 13 0 15 31
15 219 0 167 -3 220 -12 223 -7 3 -15 -1 -18 -9z"/>
<path d="M1390 2050 c0 -77 3 -101 13 -97 8 2 12 31 12 97 0 66 -4 95 -12 98
-10 3 -13 -21 -13 -98z"/>
<path d="M1607 1970 c-10 -80 -9 -160 3 -160 18 0 20 21 12 120 -7 95 -7 95
-15 40z"/>
<path d="M2157 1965 c-10 -96 -9 -155 2 -155 17 0 18 13 12 120 l-6 105 -8
-70z"/>
<path d="M757 1423 c-4 -3 -7 -161 -7 -350 0 -303 2 -344 16 -350 8 -3 20 -1
25 4 8 8 12 313 9 691 0 13 -32 17 -43 5z"/>
<path d="M1129 1423 c0 -4 0 -73 0 -153 0 -139 1 -145 21 -148 20 -3 20 0 18
150 -3 136 -5 153 -20 156 -10 2 -18 0 -19 -5z"/>
<path d="M1490 1275 l0 -156 23 3 c22 3 22 5 22 153 0 148 0 150 -22 153 l-23
3 0 -156z"/>
<path d="M79 133 c-13 -16 -12 -17 4 -4 9 7 17 15 17 17 0 8 -8 3 -21 -13z"/>
</g>
</svg>
