<?xml version="1.0" standalone="no"?>
<!DOCTYPE svg PUBLIC "-//W3C//DTD SVG 20010904//EN"
 "http://www.w3.org/TR/2001/REC-SVG-20010904/DTD/svg10.dtd">
<svg version="1.0" xmlns="http://www.w3.org/2000/svg"
 width="1584.000000pt" height="2277.000000pt" viewBox="0 0 1584.000000 2277.000000"
 preserveAspectRatio="xMidYMid meet">

<g transform="translate(0.000000,2277.000000) scale(0.100000,-0.100000)"
fill="#000000" stroke="none">
<path d="M0 11385 l0 -11385 460 0 460 0 0 5673 c0 3121 3 5811 8 5978 6 283
8 296 15 184 4 -66 10 -2756 13 -5977 l5 -5858 709 0 710 0 0 5183 c0 4895 5
6093 29 6622 5 94 9 -2524 10 -5817 l1 -5988 760 0 760 0 1 5748 c1 3161 4
5855 8 5987 l6 240 8 -250 c4 -137 9 -320 12 -405 2 -85 4 -2667 5 -5737 l0
-5583 710 0 710 0 2 5458 c1 3001 2 5509 4 5572 6 305 25 894 29 899 3 2 5
-2681 5 -5962 l0 -5967 5200 0 5200 0 0 11385 0 11385 -7920 0 -7920 0 0
-11385z m9730 10130 c-19 -19 -42 -35 -52 -35 -16 0 -16 3 3 35 17 28 27 35
52 35 l31 0 -34 -35z m707 -85 c18 -11 35 -30 38 -43 4 -13 5 -97 3 -186 l-3
-163 -30 -24 c-52 -41 -144 -23 -165 32 -13 34 -13 330 0 354 26 48 104 63
157 30z m1354 5 c16 -9 34 -27 39 -41 6 -14 10 -92 10 -174 0 -82 -4 -160 -10
-174 -11 -29 -57 -56 -95 -56 -38 0 -84 27 -95 56 -13 33 -13 315 0 348 19 50
94 70 151 41z m-2241 -15 c0 -18 -7 -20 -65 -20 l-65 0 0 -80 0 -80 60 0 c57
0 60 -1 60 -25 0 -24 -3 -25 -60 -25 l-60 0 0 -95 c0 -95 0 -95 -25 -95 l-25
0 0 220 0 220 90 0 c83 0 90 -1 90 -20z m200 -200 c45 -207 46 -215 27 -218
-24 -4 -34 10 -42 60 -7 38 -7 38 -55 38 l-48 0 -12 -50 c-10 -44 -15 -50 -37
-50 -16 0 -23 5 -21 13 3 6 25 106 49 220 43 204 44 208 68 205 23 -3 27 -13
71 -218z m281 191 c24 -25 29 -38 29 -79 0 -35 -6 -57 -21 -75 l-20 -27 20
-22 c17 -17 21 -35 21 -86 0 -57 -3 -67 -29 -93 -27 -27 -35 -29 -100 -29
l-71 0 0 220 0 220 71 0 c65 0 73 -2 100 -29z m159 -191 l0 -220 -25 0 -25 0
0 220 0 220 25 0 25 0 0 -220z m696 187 c32 -37 33 -112 3 -150 l-20 -27 20
-22 c17 -17 21 -35 21 -86 0 -57 -3 -67 -29 -93 -27 -27 -35 -29 -100 -29
l-71 0 0 221 0 221 76 -4 c69 -3 79 -6 100 -31z m286 5 c20 -19 23 -33 23 -93
0 -65 -2 -73 -28 -93 l-27 -22 35 -103 34 -102 -26 3 c-24 3 -30 13 -58 98
-29 86 -34 95 -58 98 l-27 3 0 -100 0 -101 -25 0 -25 0 0 221 0 221 80 -4 c67
-3 83 -7 102 -26z m148 -192 l0 -220 -25 0 -25 0 0 220 0 220 25 0 25 0 0
-220z m280 200 c0 -17 -7 -20 -40 -20 l-40 0 0 -200 0 -200 -25 0 -25 0 0 200
0 200 -40 0 c-33 0 -40 3 -40 20 0 19 7 20 105 20 98 0 105 -1 105 -20z
m-2016 -879 c20 -20 21 -31 21 -202 l0 -181 -28 -24 c-49 -42 -146 -24 -167
32 -13 33 -13 315 0 348 21 56 128 73 174 27z m1365 14 c28 -14 51 -58 51 -96
0 -13 -7 -19 -23 -19 -19 0 -25 8 -33 38 -8 33 -13 37 -44 40 -40 4 -60 -16
-60 -63 0 -31 24 -75 41 -75 26 0 98 -44 108 -66 16 -36 14 -120 -4 -155 -25
-48 -97 -64 -154 -34 -33 16 -41 33 -41 82 0 30 3 34 23 31 15 -2 23 -11 25
-28 6 -37 21 -50 58 -50 40 0 54 21 54 83 0 51 -13 66 -83 92 -32 12 -53 27
-63 46 -17 35 -18 106 0 138 27 48 91 64 145 36z m1320 0 c28 -14 51 -58 51
-96 0 -13 -7 -19 -23 -19 -19 0 -25 8 -33 38 -8 33 -13 37 -44 40 -40 4 -60
-16 -60 -63 0 -31 24 -75 41 -75 26 0 98 -44 108 -66 16 -36 14 -120 -4 -155
-25 -48 -97 -64 -154 -34 -33 16 -41 33 -41 82 0 30 3 34 23 31 15 -2 23 -11
25 -28 6 -37 21 -50 58 -50 40 0 54 21 54 81 0 40 -21 79 -42 79 -25 0 -97 44
-107 66 -15 33 -13 103 3 133 27 48 91 64 145 36z m-3729 -148 l55 -148 3 151
3 150 24 0 25 0 0 -221 0 -220 -26 3 c-24 3 -31 16 -83 153 l-56 150 -3 -153
-3 -152 -24 0 -25 0 0 221 0 220 27 -3 c26 -3 31 -13 83 -151z m250 -67 l0
-220 -25 0 -25 0 0 220 0 220 25 0 25 0 0 -220z m140 20 l0 -200 70 0 c63 0
70 -2 70 -20 0 -19 -7 -20 -95 -20 l-95 0 0 220 0 220 25 0 25 0 0 -200z m339
186 c43 -23 51 -54 51 -206 0 -87 -5 -149 -12 -165 -17 -38 -58 -55 -128 -55
l-60 0 0 220 0 220 60 0 c34 0 73 -6 89 -14z m741 -206 c45 -207 46 -215 27
-218 -24 -4 -34 10 -42 60 -7 38 -7 38 -55 38 l-48 0 -12 -50 c-10 -44 -15
-50 -37 -50 -16 0 -24 5 -21 13 2 6 24 106 49 220 43 203 44 208 68 205 23 -3
27 -13 71 -218z m160 20 l0 -200 70 0 c63 0 70 -2 70 -20 0 -19 -7 -20 -95
-20 l-95 0 0 220 0 220 25 0 25 0 0 -200z m194 61 c14 -76 26 -147 26 -157 0
-42 13 3 36 123 35 185 31 173 59 173 14 0 25 -4 25 -9 0 -8 -71 -347 -85
-408 -4 -16 -13 -23 -28 -23 -21 0 -25 12 -66 208 -24 114 -46 213 -49 220 -3
8 6 12 26 12 l29 0 27 -139z m376 119 c0 -18 -7 -20 -65 -20 l-65 0 0 -80 0
-80 60 0 c53 0 60 -2 60 -20 0 -18 -7 -20 -60 -20 l-60 0 0 -80 0 -80 65 0
c58 0 65 -2 65 -20 0 -19 -7 -20 -90 -20 l-90 0 0 220 0 220 90 0 c83 0 90 -1
90 -20z m651 -9 c24 -25 29 -38 29 -79 0 -35 -6 -57 -21 -75 l-20 -27 20 -22
c17 -17 21 -35 21 -86 0 -57 -3 -67 -29 -93 -27 -27 -35 -29 -100 -29 l-71 0
0 220 0 220 71 0 c65 0 73 -2 100 -29z m279 -191 c45 -207 46 -215 27 -218
-24 -4 -34 10 -42 60 -7 38 -7 38 -55 38 l-48 0 -12 -50 c-10 -44 -15 -50 -37
-50 -16 0 -23 5 -21 13 3 6 25 106 49 220 43 204 44 208 68 205 23 -3 27 -13
71 -218z m260 200 c0 -17 -7 -20 -40 -20 l-40 0 0 -200 0 -200 -25 0 -25 0 0
200 0 200 -40 0 c-33 0 -40 3 -40 20 0 19 7 20 105 20 98 0 105 -1 105 -20z
m110 -200 l0 -220 -25 0 -25 0 0 220 0 220 25 0 25 0 0 -220z m530 200 c0 -17
-7 -20 -40 -20 l-40 0 0 -200 0 -200 -25 0 -25 0 0 200 0 200 -40 0 c-33 0
-40 3 -40 20 0 19 7 20 105 20 98 0 105 -1 105 -20z m180 -200 c45 -207 46
-215 27 -218 -24 -4 -34 10 -42 60 -7 38 -7 38 -55 38 l-48 0 -12 -50 c-10
-44 -15 -50 -37 -50 -16 0 -23 5 -21 13 3 6 25 106 49 220 43 204 44 208 68
205 23 -3 27 -13 71 -218z m-1860 -2628 c22 -12 44 -35 58 -63 l22 -44 -2
-1125 c-3 -1066 -4 -1127 -21 -1153 -10 -16 -32 -37 -50 -47 -29 -18 -52 -20
-272 -20 -270 0 -291 5 -327 71 -17 32 -18 88 -18 1165 l0 1131 23 34 c43 64
64 69 322 69 204 0 234 -2 265 -18z m-2880 -3134 c82 -43 80 -31 80 -533 0
-410 -1 -443 -19 -475 -34 -64 -66 -75 -238 -78 l-153 -4 -2 -665 -3 -665 -24
-19 c-19 -16 -40 -19 -117 -19 -151 0 -134 -159 -134 1231 0 823 3 1196 11
1210 6 11 20 24 32 29 12 5 135 9 272 9 241 1 252 0 295 -21z m879 -284 c18
-22 21 -41 21 -114 0 -137 5 -134 -224 -138 l-186 -4 0 -204 0 -204 115 0
c152 0 155 -3 155 -135 0 -132 -3 -135 -155 -135 l-115 0 0 -480 0 -480 170 0
c178 0 219 -8 234 -45 3 -9 6 -54 6 -99 0 -69 -4 -88 -21 -110 l-20 -26 -305
0 c-291 0 -305 1 -324 20 -20 20 -20 33 -20 1078 0 1051 0 1058 20 1080 21 22
25 22 325 22 l304 0 20 -26z m782 3 c69 -46 70 -48 67 -469 -3 -364 -4 -377
-24 -405 -11 -15 -34 -37 -51 -48 l-29 -20 30 -15 c16 -8 39 -28 50 -43 21
-28 21 -41 24 -576 3 -659 16 -601 -138 -601 -153 0 -140 -55 -140 576 l0 524
-65 0 -64 0 -3 -531 -3 -531 -24 -19 c-19 -16 -40 -19 -117 -19 -151 0 -134
-138 -134 1099 l0 1055 22 23 c21 23 22 23 293 23 266 0 273 0 306 -23z m820
0 c62 -41 69 -68 69 -283 0 -178 -1 -193 -21 -218 -20 -25 -24 -26 -119 -26
-95 0 -99 1 -119 26 -18 23 -21 41 -21 135 l0 109 -65 0 -65 0 0 -270 0 -270
143 0 c128 0 147 -2 187 -22 83 -43 80 -15 80 -668 0 -642 2 -620 -70 -668
-34 -23 -37 -23 -287 -20 l-253 3 -37 38 -38 37 -3 349 c-3 425 -13 396 132
396 147 0 140 14 144 -295 l3 -250 64 0 65 0 0 409 0 410 -165 3 -165 3 -37
38 -38 37 0 470 0 469 30 31 c17 18 39 36 50 40 11 5 128 9 261 9 234 1 242 0
275 -22z m830 0 c73 -49 69 22 69 -1077 0 -1100 5 -1028 -70 -1078 -34 -23
-37 -23 -287 -20 l-253 3 -37 38 -38 37 0 1020 0 1019 30 31 c17 18 39 36 50
40 11 5 128 9 261 9 234 1 242 0 275 -22z m820 0 c74 -49 69 25 69 -1108 0
-1200 17 -1069 -140 -1069 -157 0 -140 -118 -140 986 l0 934 -65 0 -65 0 -2
-941 -3 -941 -24 -19 c-19 -16 -40 -19 -117 -19 -151 0 -134 -138 -134 1101
l0 1058 22 21 c21 19 34 20 293 20 266 0 273 0 306 -23z m830 0 c74 -49 69 25
69 -1108 0 -1200 17 -1069 -140 -1069 -154 0 -140 -65 -140 646 l0 594 -65 0
-65 0 -2 -601 -3 -601 -24 -19 c-19 -16 -40 -19 -117 -19 -151 0 -135 -135
-132 1081 l3 1038 30 31 c17 18 39 36 50 40 11 5 128 9 261 9 234 1 242 0 275
-22z m450 4 l24 -19 3 -941 2 -941 171 0 c177 0 218 -8 233 -45 3 -9 6 -54 6
-99 0 -69 -4 -88 -21 -110 l-20 -26 -304 0 c-300 0 -304 0 -325 22 -20 22 -20
29 -20 1077 l0 1055 22 23 c19 21 30 23 114 23 75 0 96 -3 115 -19z m-5252
-2957 c19 -24 21 -40 21 -144 0 -161 -2 -163 -147 -170 l-108 -5 -5 -1358 -5
-1359 -24 -19 c-20 -16 -40 -19 -141 -19 -110 0 -119 1 -144 25 l-26 24 0
1356 0 1355 -105 0 c-102 0 -107 1 -130 26 -24 25 -25 33 -25 146 0 113 1 120
25 143 l24 25 385 0 385 0 20 -26z m948 -325 c34 -13 80 -55 99 -91 11 -22 14
-113 14 -503 0 -390 -3 -481 -14 -503 -18 -35 -64 -78 -96 -90 -24 -9 -24 -9
13 -27 21 -10 50 -34 65 -53 l27 -35 3 -699 2 -699 -24 -24 c-24 -24 -31 -25
-146 -25 -115 0 -122 1 -145 25 l-25 24 0 666 0 665 -85 0 -85 0 0 -645 c0
-689 -1 -699 -48 -724 -28 -15 -227 -14 -255 1 -12 6 -27 18 -34 27 -10 12
-12 315 -13 1339 l0 1324 29 29 29 29 331 0 c209 0 340 -4 358 -11z m1030 0
c34 -13 80 -55 99 -91 12 -23 14 -226 14 -1318 l0 -1291 -25 -24 c-23 -24 -30
-25 -145 -25 -115 0 -122 1 -145 25 l-25 24 0 751 0 750 -85 0 -85 0 -2 -751
-3 -751 -28 -24 c-26 -22 -36 -24 -137 -24 -119 0 -152 9 -169 47 -15 33 -16
2559 0 2600 14 37 57 82 94 99 38 17 598 20 642 3z m608 -13 c13 -13 26 -39
30 -57 3 -19 4 -618 3 -1332 l-3 -1299 -28 -24 c-26 -22 -36 -24 -137 -24
-119 0 -152 9 -169 47 -8 17 -11 397 -11 1339 l0 1316 29 29 c29 29 31 29 146
29 109 0 117 -1 140 -24z m942 13 c34 -13 80 -55 99 -91 12 -23 14 -226 14
-1318 l0 -1291 -25 -24 c-23 -24 -30 -25 -145 -25 -115 0 -122 1 -145 25 l-25
24 0 1181 0 1180 -85 0 -85 0 -2 -1181 -3 -1181 -28 -24 c-26 -22 -36 -24
-145 -24 -122 1 -138 5 -160 47 -9 16 -12 356 -12 1338 l0 1317 29 29 29 29
331 0 c209 0 340 -4 358 -11z m1106 -1 c42 -22 46 -38 47 -164 0 -117 -1 -121
-26 -145 -25 -24 -28 -24 -255 -27 l-229 -3 0 -254 0 -254 146 -3 c146 -3 146
-3 170 -31 22 -26 24 -36 24 -143 0 -114 0 -116 -29 -145 l-29 -29 -141 0
-141 0 0 -599 0 -600 231 -3 231 -3 24 -28 c22 -26 24 -36 24 -148 0 -114 -1
-121 -25 -144 l-24 -25 -378 0 c-398 1 -397 1 -421 47 -9 16 -12 356 -12 1338
l0 1317 29 29 29 29 367 0 c259 0 373 -3 388 -12z m964 1 c34 -13 80 -55 99
-91 11 -22 14 -113 14 -503 0 -390 -3 -481 -14 -503 -18 -35 -64 -78 -96 -90
-24 -9 -24 -9 13 -27 21 -10 50 -34 65 -53 l27 -35 3 -699 2 -699 -24 -24
c-24 -24 -31 -25 -146 -25 -115 0 -122 1 -145 25 l-25 24 0 666 0 665 -85 0
-85 0 0 -645 c0 -689 -1 -699 -48 -724 -27 -14 -224 -14 -255 0 -14 6 -30 22
-36 36 -8 17 -11 397 -11 1339 l0 1316 29 29 29 29 331 0 c209 0 340 -4 358
-11z m-3912 -3479 c-27 -28 -48 -40 -67 -40 -33 0 -33 -1 -11 45 16 33 19 35
67 35 l50 0 -39 -40z m-1805 -95 c33 -17 55 -53 65 -108 l7 -37 -40 0 c-35 0
-41 3 -47 27 -10 40 -24 53 -56 53 -33 0 -49 -23 -49 -72 0 -48 12 -60 81 -88
78 -32 101 -61 107 -137 8 -116 -43 -183 -137 -183 -49 0 -103 26 -119 57 -5
10 -13 37 -17 61 l-7 42 40 0 c35 0 41 -3 47 -27 10 -40 24 -53 56 -53 38 0
59 24 59 70 0 68 -12 85 -79 109 -97 35 -117 66 -109 171 4 62 29 102 73 120
32 14 94 11 125 -5z m2575 -1 c37 -17 65 -66 65 -113 0 -29 -2 -31 -40 -31
-37 0 -40 2 -40 28 0 15 -5 33 -12 40 -19 19 -66 15 -78 -7 -6 -11 -10 -89
-10 -181 0 -92 4 -170 10 -181 12 -22 59 -26 78 -7 7 7 12 25 12 40 0 26 3 28
40 28 38 0 40 -2 40 -30 0 -53 -26 -99 -64 -115 -76 -32 -151 -11 -180 50 -15
30 -17 64 -14 229 3 192 3 195 28 221 44 47 105 58 165 29z m1820 0 c37 -17
65 -66 65 -113 0 -29 -2 -31 -40 -31 -37 0 -40 2 -40 28 0 15 -5 33 -12 40
-19 19 -66 15 -78 -7 -6 -11 -10 -89 -10 -181 0 -92 4 -170 10 -181 12 -22 59
-26 78 -7 7 7 12 25 12 40 0 26 3 28 40 28 38 0 40 -2 40 -30 0 -53 -26 -99
-64 -115 -82 -34 -166 -6 -186 62 -7 24 -10 106 -8 225 3 183 3 187 28 213 44
47 105 58 165 29z m-4855 -29 l0 -35 -75 0 -75 0 0 -80 0 -80 70 0 70 0 0 -35
0 -35 -70 0 -70 0 0 -85 0 -85 80 0 80 0 0 -35 0 -35 -120 0 -120 0 0 270 0
270 115 0 115 0 0 -35z m680 -181 c0 -129 4 -223 10 -235 7 -13 21 -19 45 -19
24 0 38 6 45 19 6 12 10 106 10 235 l0 216 40 0 40 0 -1 -217 c0 -245 -6 -275
-58 -310 -70 -47 -172 -17 -198 57 -8 23 -12 111 -12 253 l-1 217 40 0 40 0 0
-216z m404 199 c3 -10 28 -121 56 -248 28 -126 54 -240 57 -252 5 -21 2 -23
-36 -23 l-40 0 -13 60 -12 60 -47 0 c-45 0 -48 -2 -53 -30 -3 -16 -9 -43 -12
-60 -5 -27 -9 -30 -45 -30 -21 0 -39 2 -39 4 0 2 25 122 55 266 30 144 55 264
55 266 0 2 15 4 34 4 24 0 36 -5 40 -17z m554 -3 c43 -26 62 -74 62 -152 0
-104 -49 -158 -145 -158 l-45 0 0 -105 0 -105 -40 0 -40 0 0 270 0 270 88 0
c70 0 94 -4 120 -20z m326 6 c48 -20 69 -71 64 -158 -3 -63 -7 -73 -34 -98
l-31 -27 42 -122 43 -121 -43 0 -42 0 -39 115 c-34 101 -42 115 -61 115 -23 0
-23 -2 -23 -115 l0 -115 -40 0 -40 0 0 270 0 270 85 0 c50 0 99 -6 119 -14z
m280 -3 c3 -10 28 -121 56 -248 28 -126 54 -240 57 -252 5 -21 2 -23 -36 -23
l-40 0 -13 60 -12 60 -47 0 c-45 0 -48 -2 -53 -30 -3 -16 -9 -43 -12 -60 -5
-27 -9 -30 -45 -30 -21 0 -39 2 -39 4 0 2 25 122 55 266 30 144 55 264 55 266
0 2 15 4 34 4 24 0 36 -5 40 -17z m366 -18 c0 -35 0 -35 -45 -35 l-45 0 0
-235 0 -235 -40 0 -40 0 0 235 0 235 -50 0 -50 0 0 35 0 35 135 0 135 0 0 -35z
m140 -235 l0 -270 -40 0 -40 0 0 270 0 270 40 0 40 0 0 -270z m564 253 c3 -10
28 -121 56 -248 28 -126 54 -240 57 -252 5 -21 2 -23 -36 -23 l-40 0 -13 60
-12 60 -47 0 c-45 0 -48 -2 -53 -30 -3 -16 -9 -43 -12 -60 -5 -27 -9 -30 -45
-30 -21 0 -39 2 -39 4 0 2 25 122 55 267 30 145 55 265 55 266 0 2 15 3 34 3
24 0 36 -5 40 -17z m576 -18 l0 -35 -75 0 -75 0 0 -80 0 -80 70 0 70 0 0 -35
0 -35 -70 0 -70 0 0 -85 0 -85 80 0 80 0 0 -35 0 -35 -120 0 -120 0 0 270 0
270 115 0 115 0 0 -35z m287 9 c46 -34 55 -79 51 -264 -3 -139 -6 -169 -21
-192 -29 -42 -75 -58 -166 -58 l-81 0 0 271 0 271 94 -4 c77 -2 100 -7 123
-24z m213 -190 c0 -129 4 -223 10 -235 7 -13 21 -19 45 -19 24 0 38 6 45 19 6
12 10 106 10 235 l0 216 40 0 40 0 -1 -217 c0 -245 -6 -275 -58 -310 -70 -47
-172 -17 -198 57 -8 23 -12 111 -12 253 l-1 217 40 0 40 0 0 -216z m744 199
c3 -10 28 -121 56 -248 28 -126 54 -240 57 -252 5 -21 2 -23 -36 -23 l-40 0
-13 60 -12 60 -47 0 c-45 0 -48 -2 -53 -30 -3 -16 -9 -43 -12 -60 -5 -27 -9
-30 -45 -30 -21 0 -39 2 -39 4 0 2 25 122 55 266 30 144 55 264 55 266 0 2 15
4 34 4 24 0 36 -5 40 -17z m366 -18 c0 -35 0 -35 -45 -35 l-45 0 0 -235 0
-235 -40 0 -40 0 0 235 0 235 -50 0 -50 0 0 35 0 35 135 0 135 0 0 -35z m140
-235 l0 -270 -40 0 -40 0 0 270 0 270 40 0 40 0 0 -270z m175 90 c16 -99 30
-178 32 -176 2 1 14 72 28 157 35 216 29 199 75 199 22 0 40 -2 40 -5 0 -7
-101 -499 -106 -517 -4 -13 -16 -18 -40 -18 -19 0 -34 2 -34 4 0 2 -25 122
-55 266 -30 144 -55 264 -55 266 0 2 20 4 43 4 l44 0 28 -180z m339 163 c3
-10 28 -121 56 -248 28 -126 54 -240 57 -252 5 -21 2 -23 -36 -23 l-40 0 -13
60 -12 60 -47 0 c-45 0 -48 -2 -53 -30 -3 -16 -9 -43 -12 -60 -5 -27 -9 -30
-45 -30 -21 0 -39 2 -39 5 0 2 25 122 55 267 30 144 55 264 55 265 0 2 15 3
34 3 24 0 36 -5 40 -17z m-3894 -5204 c83 -13 168 -48 224 -90 42 -32 44 -37
48 -92 5 -84 -6 -73 -38 41 -6 20 -95 72 -164 93 -70 22 -243 36 -304 25 l-36
-7 0 -342 0 -342 153 0 c144 0 156 -2 237 -31 47 -17 93 -34 102 -38 14 -6 17
-1 20 30 2 21 9 39 16 42 9 3 12 -15 12 -65 l0 -69 -79 38 c-112 55 -200 71
-341 64 -63 -3 -124 -6 -135 -8 -19 -3 -20 4 -23 232 -2 129 0 299 3 377 l7
142 27 4 c55 8 209 6 271 -4z m266 -384 c62 -173 89 -236 109 -252 l26 -23
-98 0 c-91 0 -96 1 -75 16 12 8 22 21 22 27 0 7 -28 94 -63 193 l-62 182 -65
-190 -65 -190 24 -19 23 -19 -63 0 -64 1 26 19 c21 15 43 69 110 255 111 312
102 312 215 0z m300 115 c32 0 44 -4 44 -15 0 -11 -12 -15 -45 -15 l-45 0 0
-138 c0 -156 7 -175 59 -175 l32 0 -20 -21 c-30 -30 -85 -27 -119 7 -27 27
-27 30 -30 177 -3 125 -6 150 -19 150 -9 0 6 24 39 62 l53 62 3 -47 3 -47 45
0z m334 -38 c37 -18 80 -87 80 -129 0 -23 -2 -23 -116 -23 l-117 0 6 -40 c11
-86 74 -131 157 -112 58 13 62 8 13 -16 -57 -29 -96 -35 -144 -21 -85 26 -139
118 -124 208 19 116 144 184 245 133z m250 -24 l0 -31 23 20 c54 50 110 57
154 19 28 -24 28 -26 33 -164 3 -77 7 -142 10 -145 3 -2 14 -9 25 -15 16 -9 8
-11 -47 -12 l-66 0 -4 141 c-3 126 -5 142 -22 155 -26 18 -56 18 -84 -2 -21
-14 -22 -22 -22 -138 0 -117 1 -124 23 -139 21 -15 16 -16 -73 -16 -74 0 -91
2 -75 11 41 22 45 38 45 165 l0 124 -30 17 -30 17 58 11 c84 17 82 17 82 -18z
m541 17 c41 -22 49 -50 49 -174 0 -115 7 -133 55 -143 15 -3 11 -7 -18 -17
-44 -15 -91 -2 -108 31 -11 20 -11 20 -32 0 -49 -44 -96 -53 -146 -28 -26 14
-51 53 -51 81 0 54 62 98 158 110 l52 7 0 44 c0 73 -56 108 -101 63 -14 -14
-19 -30 -17 -52 3 -30 1 -32 -27 -32 -26 0 -30 4 -33 28 -9 74 132 126 219 82z
m-401 -460 c0 -69 -3 -85 -15 -85 -11 0 -15 12 -15 50 0 34 -4 50 -13 50 -35
0 -50 -56 -21 -84 13 -14 13 -16 0 -16 -20 0 -46 27 -46 48 0 30 30 62 57 62
23 0 25 3 20 30 -6 25 -3 30 13 30 18 0 20 -7 20 -85z m-140 65 c0 -5 -13 -7
-30 -3 l-30 6 0 -77 c0 -66 -2 -76 -17 -76 -16 0 -18 11 -18 80 l0 80 48 0
c26 0 47 -4 47 -10z m205 -20 c-5 -8 -11 -8 -17 -2 -6 6 -7 16 -3 22 5 8 11 8
17 2 6 -6 7 -16 3 -22z m75 -10 c0 -5 8 -11 18 -11 16 -1 16 -2 0 -6 -14 -3
-18 -15 -18 -48 0 -33 4 -45 18 -49 9 -2 4 -4 -13 -3 -29 2 -30 5 -35 55 -5
48 2 72 22 72 4 0 8 -4 8 -10z m-68 -65 c3 -50 1 -55 -17 -55 -18 0 -20 7 -20
55 0 45 3 55 17 55 13 0 17 -12 20 -55z m152 30 c-13 -20 -14 -31 -6 -55 11
-31 5 -39 -16 -18 -27 27 -9 98 25 98 10 0 10 -6 -3 -25z m60 3 c9 -12 16 -29
16 -37 0 -17 -29 -51 -44 -51 -6 0 -5 5 2 12 15 15 16 53 2 79 -15 27 5 25 24
-3z m124 5 c2 -7 -3 -13 -12 -13 -9 0 -16 5 -16 11 0 5 -4 7 -10 4 -5 -3 -10
-26 -10 -51 0 -35 -3 -44 -17 -44 -15 0 -18 9 -18 55 l0 55 39 -3 c22 -1 41
-8 44 -14z m100 -33 c2 -24 9 -48 15 -53 7 -5 2 -7 -13 -5 -22 3 -25 8 -28 51
-2 33 -7 47 -18 47 -7 0 -14 -7 -14 -15 0 -8 -4 -15 -10 -15 -12 0 -13 23 -3
34 4 4 21 6 38 4 28 -3 30 -6 33 -48z m-652 21 c-3 -5 -15 -7 -26 -4 -28 7
-25 13 6 13 14 0 23 -4 20 -9z m597 -42 c-4 -12 0 -25 8 -30 10 -7 7 -9 -11
-7 -28 3 -40 36 -18 49 21 14 27 11 21 -12z m-583 -24 c0 -10 -10 -15 -32 -14
-22 1 -26 3 -13 6 11 3 24 9 30 14 13 12 15 11 15 -6z m-959 -297 c25 -65 44
-120 41 -123 -13 -13 -40 -3 -50 20 -10 22 -18 25 -60 25 -42 0 -50 -3 -60
-25 -11 -23 -52 -37 -52 -17 0 5 17 53 38 108 21 54 42 107 45 117 5 12 15 17
29 15 18 -2 31 -25 69 -120z m714 97 c14 -13 25 -31 25 -41 0 -25 -29 -79 -56
-105 -33 -31 -31 -35 17 -31 38 4 40 3 37 -19 -3 -22 -8 -24 -77 -27 -42 -2
-79 2 -84 7 -7 7 9 31 51 75 68 70 80 109 40 122 -16 5 -26 1 -36 -15 -17 -24
-52 -28 -52 -6 0 27 47 65 80 65 19 0 40 -9 55 -25z m175 15 c36 -19 52 -122
29 -188 -11 -33 -47 -62 -77 -62 -30 0 -70 51 -78 97 -18 115 47 195 126 153z
m200 -10 c31 -31 26 -80 -15 -131 l-35 -44 35 -3 c30 -3 35 -7 35 -28 0 -23
-2 -24 -80 -24 -52 0 -80 4 -80 11 0 6 27 43 61 81 61 72 68 92 36 112 -15 9
-22 7 -37 -11 -22 -28 -62 -32 -53 -5 21 59 93 82 133 42z m189 -6 c34 -43 26
-80 -32 -141 l-31 -33 42 0 c38 0 42 -2 42 -25 0 -25 -1 -25 -80 -25 -100 0
-102 10 -25 91 38 40 55 66 55 84 0 35 -28 45 -51 17 -15 -19 -59 -31 -59 -17
0 14 31 64 42 68 36 15 77 6 97 -19z m-1063 -59 c22 -22 25 -32 22 -93 -3 -59
-5 -67 -23 -67 -18 0 -20 8 -23 62 -4 76 -24 100 -53 64 -13 -16 -19 -39 -19
-77 0 -47 -2 -54 -20 -54 -19 0 -20 7 -20 91 l0 92 28 -6 c15 -3 34 -2 42 4
24 14 39 11 66 -16z m211 -6 c50 -47 33 -128 -33 -155 -30 -13 -38 -13 -64 1
-56 29 -74 83 -46 134 29 53 97 62 143 20z"/>
<path d="M10330 21381 c-5 -11 -10 -83 -10 -161 0 -78 5 -150 10 -161 7 -13
21 -19 45 -19 24 0 38 6 45 19 5 11 10 83 10 161 0 78 -5 150 -10 161 -7 13
-21 19 -45 19 -24 0 -38 -6 -45 -19z"/>
<path d="M11690 21381 c-5 -11 -10 -83 -10 -161 0 -78 5 -150 10 -161 7 -13
21 -19 45 -19 24 0 38 6 45 19 5 11 10 83 10 161 0 78 -5 150 -10 161 -7 13
-21 19 -45 19 -24 0 -38 -6 -45 -19z"/>
<path d="M9657 21238 c-9 -46 -17 -86 -17 -90 0 -5 18 -8 41 -8 34 0 40 3 35
18 -2 9 -10 44 -16 77 -18 92 -24 92 -43 3z"/>
<path d="M9910 21325 l0 -75 30 0 c43 0 70 31 70 79 0 46 -26 71 -72 71 l-28
0 0 -75z"/>
<path d="M9910 21125 l0 -85 30 0 c45 0 70 31 70 85 0 54 -25 85 -70 85 l-30
0 0 -85z"/>
<path d="M10760 21325 l0 -75 28 0 c48 0 72 25 72 75 0 50 -24 75 -72 75 l-28
0 0 -75z"/>
<path d="M10760 21125 l0 -85 30 0 c46 0 70 31 70 89 0 56 -22 81 -72 81 l-28
0 0 -85z"/>
<path d="M11040 21320 l0 -80 35 0 c48 0 75 29 75 80 0 51 -27 80 -75 80 l-35
0 0 -80z"/>
<path d="M9460 20501 c-5 -11 -10 -83 -10 -161 0 -78 5 -150 10 -161 7 -13 21
-19 45 -19 24 0 38 6 45 19 5 11 10 83 10 161 0 78 -5 150 -10 161 -7 13 -21
19 -45 19 -24 0 -38 -6 -45 -19z"/>
<path d="M9170 20340 l0 -170 33 0 c60 0 67 19 67 172 0 151 -7 168 -68 168
l-32 0 0 -170z"/>
<path d="M9917 20358 c-10 -45 -17 -86 -17 -90 0 -5 18 -8 41 -8 34 0 40 3 35
18 -2 9 -10 44 -16 77 -19 94 -25 94 -43 3z"/>
<path d="M11270 20445 l0 -75 28 0 c48 0 72 25 72 75 0 50 -24 75 -72 75 l-28
0 0 -75z"/>
<path d="M11270 20245 l0 -85 30 0 c46 0 70 31 70 89 0 56 -22 81 -72 81 l-28
0 0 -85z"/>
<path d="M11582 20385 c-7 -36 -15 -78 -18 -95 -6 -30 -6 -30 35 -30 36 0 42
3 38 18 -3 9 -13 52 -22 95 -9 42 -18 77 -19 77 -1 0 -8 -29 -14 -65z"/>
<path d="M12662 20385 c-7 -36 -15 -78 -18 -95 -6 -30 -6 -30 35 -30 36 0 42
3 38 18 -3 9 -13 52 -22 95 -9 42 -18 77 -19 77 -1 0 -8 -29 -14 -65z"/>
<path d="M10552 16493 l3 -958 68 -3 67 -3 0 961 0 960 -70 0 -70 0 2 -957z"/>
<path d="M7680 14045 l0 -275 65 0 65 0 0 275 0 275 -65 0 -65 0 0 -275z"/>
<path d="M9330 13770 l0 -270 65 0 65 0 0 270 0 270 -65 0 -65 0 0 -270z"/>
<path d="M10980 13220 l0 -820 65 0 65 0 0 820 0 820 -65 0 -65 0 0 -820z"/>
<path d="M12630 13835 l0 -205 65 0 65 0 0 205 0 205 -65 0 -65 0 0 -205z"/>
<path d="M8720 10335 l0 -346 83 3 82 3 3 343 2 342 -85 0 -85 0 0 -345z"/>
<path d="M9750 10425 l0 -255 85 0 85 0 0 255 0 255 -85 0 -85 0 0 -255z"/>
<path d="M13370 10335 l0 -346 83 3 82 3 3 343 2 342 -85 0 -85 0 0 -345z"/>
<path d="M8617 7200 c-9 -47 -17 -88 -17 -92 0 -5 16 -8 35 -8 41 0 42 3 17
110 l-18 75 -17 -85z"/>
<path d="M9100 7285 l0 -95 33 0 c18 0 43 7 55 16 19 13 22 24 22 79 0 55 -3
66 -22 79 -12 9 -37 16 -55 16 l-33 0 0 -95z"/>
<path d="M9430 7295 l0 -85 33 0 c56 0 77 23 77 84 0 64 -19 86 -73 86 l-37 0
0 -85z"/>
<path d="M9777 7200 c-9 -47 -17 -88 -17 -92 0 -5 16 -8 35 -8 41 0 42 3 17
110 l-18 75 -17 -85z"/>
<path d="M10847 7200 c-9 -47 -17 -88 -17 -92 0 -5 16 -8 35 -8 41 0 42 3 17
110 l-18 75 -17 -85z"/>
<path d="M11630 7179 l0 -190 42 3 c61 4 68 23 68 193 0 166 -7 185 -71 185
l-39 0 0 -191z"/>
<path d="M12667 7200 c-9 -47 -17 -88 -17 -92 0 -5 16 -8 35 -8 41 0 42 3 17
110 l-18 75 -17 -85z"/>
<path d="M13687 7200 c-9 -47 -17 -88 -17 -92 0 -5 16 -8 35 -8 41 0 42 3 17
110 l-18 75 -17 -85z"/>
<path d="M10624 1895 c-9 -13 -18 -42 -21 -65 l-6 -40 72 0 71 0 0 43 c0 58
-22 87 -65 87 -26 0 -39 -6 -51 -25z"/>
<path d="M11409 1741 c-31 -25 -33 -96 -4 -117 53 -39 95 -3 95 79 l0 57 -34
0 c-19 0 -44 -9 -57 -19z"/>
<path d="M9967 1100 c-15 -35 -15 -35 10 -38 34 -5 36 0 20 39 l-15 34 -15
-35z"/>
<path d="M10870 1151 c-5 -11 -10 -41 -10 -66 0 -74 29 -107 60 -70 16 19 16
121 0 140 -17 21 -37 19 -50 -4z"/>
<path d="M10386 1097 c-23 -17 -24 -63 -2 -85 12 -12 22 -14 43 -6 38 13 45
65 11 88 -27 19 -29 19 -52 3z"/>
</g>
</svg>
